<?xml version="1.0" standalone="no"?>
<!DOCTYPE svg PUBLIC "-//W3C//DTD SVG 1.1//EN" "http://www.w3.org/Graphics/SVG/1.1/DTD/svg11.dtd" >
<svg>
<metadata>
Created by FontForge 20090914 at Fri Feb 24 04:40:33 2012
 By root
Caviar Dreams &#194;&#169; Lauren Thompson 2010. All rights reserved. 
</metadata>
<defs>
<font id="CaviarDreams-Bold" horiz-adv-x="1154" >
  <font-face 
    font-family="Caviar Dreams"
    font-weight="500"
    font-stretch="normal"
    units-per-em="2048"
    panose-1="2 11 6 2 2 2 4 2 5 4"
    ascent="1638"
    descent="-410"
    x-height="935"
    cap-height="1516"
    bbox="-74 -425 2545 1893"
    underline-thickness="150"
    underline-position="-142"
    unicode-range="U+0020-U+FB02"
  />
<missing-glyph horiz-adv-x="2620" 
d="M1041 1359h546l308 -392l-64 -302q126 42 126 134q-20 24 -20 48q0 78 140 78q104 0 210 -140q68 -56 258 -112q0 -28 -20 -28q0 -14 6 -22q-6 -34 -56 -43q-18 -3 -42 -3q-44 0 -108 10q24 -20 136 -20q21 4 37 4t27 -4q0 -54 -204 -84l-126 8q114 -56 190 -56h42v-8
q-52 -70 -190 -70q-70 0 -160 36q0 -44 160 -98q0 -28 -76 -36q-44 0 -190 64q0 -34 70 -92q-5 -3 -17 -3q-36 0 -137 31l22 -62l-28 -8q-38 0 -134 106l-62 -294h-742l-84 294q-74 -94 -120 -106l-28 8l14 62q-86 -42 -132 -42l-14 22q63 38 63 76q0 4 -1 8
q-128 -64 -188 -64q-70 8 -70 36q154 52 154 95v3q-72 -36 -154 -36h-28q-110 0 -162 70v8h42q76 0 133 17t57 39l-140 -8q-190 34 -190 84l14 8l50 -8q47 -2 81 -2q67 0 81 8l-156 11t-76 33l6 20l-20 8v28q224 62 294 146q74 106 174 106q140 0 140 -78q0 -24 -20 -48
q22 -134 112 -134l-70 302zM1288 778q0 39 50 76q17 -37 43 -178q5 -30 5 -62q0 -116 -73 -250q115 101 178 199q51 80 51 155q0 17 -2 34q-14 91 -28 138q-14 48 -25 107l-163 -59q-16 -9 -36 -17v3q-6 70 -31 73q-53 -37 -176 -96q47 -14 47 -44v-252q0 -6 -11 -13
t-39 -21q48 -72 99 -72q23 0 47 15q75 46 120 60q-45 11 -50.5 23.5t-5.5 18.5v162z" />
    <glyph glyph-name=".notdef" horiz-adv-x="2620" 
d="M1041 1359h546l308 -392l-64 -302q126 42 126 134q-20 24 -20 48q0 78 140 78q104 0 210 -140q68 -56 258 -112q0 -28 -20 -28q0 -14 6 -22q-6 -34 -56 -43q-18 -3 -42 -3q-44 0 -108 10q24 -20 136 -20q21 4 37 4t27 -4q0 -54 -204 -84l-126 8q114 -56 190 -56h42v-8
q-52 -70 -190 -70q-70 0 -160 36q0 -44 160 -98q0 -28 -76 -36q-44 0 -190 64q0 -34 70 -92q-5 -3 -17 -3q-36 0 -137 31l22 -62l-28 -8q-38 0 -134 106l-62 -294h-742l-84 294q-74 -94 -120 -106l-28 8l14 62q-86 -42 -132 -42l-14 22q63 38 63 76q0 4 -1 8
q-128 -64 -188 -64q-70 8 -70 36q154 52 154 95v3q-72 -36 -154 -36h-28q-110 0 -162 70v8h42q76 0 133 17t57 39l-140 -8q-190 34 -190 84l14 8l50 -8q47 -2 81 -2q67 0 81 8l-156 11t-76 33l6 20l-20 8v28q224 62 294 146q74 106 174 106q140 0 140 -78q0 -24 -20 -48
q22 -134 112 -134l-70 302zM1288 778q0 39 50 76q17 -37 43 -178q5 -30 5 -62q0 -116 -73 -250q115 101 178 199q51 80 51 155q0 17 -2 34q-14 91 -28 138q-14 48 -25 107l-163 -59q-16 -9 -36 -17v3q-6 70 -31 73q-53 -37 -176 -96q47 -14 47 -44v-252q0 -6 -11 -13
t-39 -21q48 -72 99 -72q23 0 47 15q75 46 120 60q-45 11 -50.5 23.5t-5.5 18.5v162z" />
    <glyph glyph-name=".null" horiz-adv-x="200" 
 />
    <glyph glyph-name="nonmarkingreturn" horiz-adv-x="708" 
 />
    <glyph glyph-name="space" unicode=" " horiz-adv-x="708" 
 />
    <glyph glyph-name="space" unicode="&#xa0;" horiz-adv-x="708" 
 />
    <glyph glyph-name="exclam" unicode="!" horiz-adv-x="460" 
d="M304 165.5q31 -30.5 31 -73.5q0 -44 -31 -74.5t-74 -30.5t-74 30.5t-31 74.5q0 43 31 73.5t74 30.5t74 -30.5zM291 1516v-1262h-126v1262h126z" />
    <glyph glyph-name="quotedbl" unicode="&#x22;" horiz-adv-x="593" 
d="M125 917v596h127v-596h-127zM341 917v596h127v-596h-127z" />
    <glyph glyph-name="numbersign" unicode="#" horiz-adv-x="1598" 
d="M768 950h167l102 410h128l-102 -410h409l-32 -127h-409l-42 -167h410l-33 -127h-409l-102 -409h-128l102 409h-166l-102 -409h-129l103 409h-410l32 127h410l41 167h-409l32 127h409l102 410h129zM903 823h-167l-41 -167h166z" />
    <glyph glyph-name="dollar" unicode="$" horiz-adv-x="992" 
d="M566 775v-554q60 9 124 74q80 80 80 194t-80 194q-65 65 -124 92zM439 1296q-24 -4 -62 -42q-49 -49 -49 -119t48 -119q37 -36 63 -51v331zM439 827q-86 38 -150 102q-85 85 -85 206q0 119 85 204q72 73 150 82v152h127v-155q69 -12 136 -78q47 -46 74 -127l-112 -45
q-22 59 -50 87q-33 32 -48 36v-384q116 -45 211 -138q116 -116 116 -280q0 -165 -116 -281q-99 -98 -211 -112v-131h-127v130q-120 9 -224 113q-93 93 -115 238l119 43q13 -126 83 -195q69 -69 137 -76v609z" />
    <glyph glyph-name="percent" unicode="%" horiz-adv-x="1180" 
d="M1078 1236l-870 -1242l-105 72l870 1242zM480.5 1093.5q68.5 -68.5 68.5 -166.5q0 -97 -68.5 -165.5t-165.5 -68.5q-98 0 -166.5 68.5t-68.5 165.5q0 98 68.5 166.5t166.5 68.5q97 0 165.5 -68.5zM315 1038q-47 0 -79 -32.5t-32 -78.5t32 -78t79 -32q45 0 77.5 32
t32.5 78t-32.5 78.5t-77.5 32.5zM1032.5 541.5q68.5 -68.5 68.5 -166.5q0 -97 -68.5 -165.5t-165.5 -68.5q-98 0 -166.5 68.5t-68.5 165.5q0 98 68.5 166.5t166.5 68.5q97 0 165.5 -68.5zM867 486q-47 0 -79 -32.5t-32 -78.5t32 -78t79 -32q45 0 77.5 32t32.5 78t-32.5 78.5
t-77.5 32.5z" />
    <glyph glyph-name="ampersand" unicode="&#x26;" horiz-adv-x="1257" 
d="M842 314l-6 4q-47 27 -115 98q-42 38 -58 47q-15 8 -30 8q-9 0 -17 -2q-24 -7 -36 -28q-9 -16 -9 -30q0 -8 3 -17q6 -24 25 -34q12 -7 37 -7q15 0 63 6l-13 -118q-40 -11 -66 -11q-43 0 -83 22q-63 35 -83 109q-7 26 -7 50q0 46 25 90q38 67 111 87q26 7 51 7
q47 0 89 -25q40 -22 101 -85q50 -47 73 -59q23 -13 46 -13q14 0 28 4q39 10 59 45q13 24 13 48q0 12 -4 26q-10 38 -45 59q-21 11 -47 11q-20 0 -71 -14l-2 127q45 13 74 13q55 0 107 -29q79 -45 104 -134q8 -31 8 -59q0 -57 -30 -108q-45 -80 -134 -104q-27 -7 -36 -8
q-27 -89 -110 -172q-134 -135 -324 -135q-189 0 -323.5 134t-134.5 325q0 189 132 329q90 97 179 127q-18 7 -92 86t-74 217q0 136 97.5 234t236.5 98q138 0 236 -97q55 -52 82 -138l-114 -45q-23 61 -57 96q-61 60 -147 60q-85 0 -146 -60.5t-61 -147.5q0 -86 60 -150
t111 -83.5t152 -20.5v-120l-86 -3q-192 -36 -288 -140.5t-96 -241.5q0 -139 97.5 -236.5t235.5 -97.5q137 0 235 98q57 57 74 108z" />
    <glyph glyph-name="quotesingle" unicode="'" horiz-adv-x="377" 
d="M125 917v596h127v-596h-127z" />
    <glyph glyph-name="parenleft" unicode="(" horiz-adv-x="707" 
d="M607 1506q-132 -61 -229 -183q-162 -204 -162 -565q0 -362 162 -566q97 -122 229 -186v-123q-190 66 -315 223q-192 239 -192 652q0 412 192 652q125 157 315 223v-127z" />
    <glyph glyph-name="parenright" unicode=")" horiz-adv-x="707" 
d="M100 1633q190 -66 314 -223q193 -240 193 -652q0 -413 -193 -652q-124 -157 -314 -223v123q132 64 229 186q162 204 162 566q0 361 -162 565q-97 122 -229 183v127z" />
    <glyph glyph-name="asterisk" unicode="*" horiz-adv-x="818" 
d="M472 1338l144 100l73 -104l-170 -119l170 -119l-73 -104l-144 101v-176h-126v177l-145 -102l-73 104l170 119l-170 119l73 104l145 -101v176h126v-175z" />
    <glyph glyph-name="plus" unicode="+" horiz-adv-x="1030" 
d="M452 503h-327v127h327v327h126v-327h327v-127h-327v-326h-126v326z" />
    <glyph glyph-name="comma" unicode="," horiz-adv-x="421" 
d="M321 197l-191 -398h-120l107 398h204z" />
    <glyph glyph-name="hyphen" unicode="-" horiz-adv-x="837" 
d="M125 630h587v-127h-587v127z" />
    <glyph glyph-name="hyphen" unicode="&#xad;" horiz-adv-x="837" 
d="M125 630h587v-127h-587v127z" />
    <glyph glyph-name="period" unicode="." horiz-adv-x="410" 
d="M279 165.5q31 -30.5 31 -73.5q0 -44 -31 -74.5t-74 -30.5t-74 30.5t-31 74.5q0 43 31 73.5t74 30.5t74 -30.5z" />
    <glyph glyph-name="slash" unicode="/" horiz-adv-x="729" 
d="M636 1516h143l-687 -1516h-142z" />
    <glyph glyph-name="zero" unicode="0" horiz-adv-x="1206" 
d="M999 989q0 164 -116 279.5t-280 115.5t-280 -115.5t-116 -279.5v-488q0 -164 116 -279t280 -115t280 115t116 279v488zM1130 501q0 -218 -154 -372.5t-373 -154.5q-218 0 -372.5 154.5t-154.5 372.5v488q0 218 154.5 372.5t372.5 154.5q219 0 373 -154.5t154 -372.5v-488
z" />
    <glyph glyph-name="one" unicode="1" horiz-adv-x="1302" 
d="M769 1516v-1516h-127v1327h-110l147 189h90z" />
    <glyph glyph-name="two" unicode="2" horiz-adv-x="1220" 
d="M358 435.5l272 204t212.5 193t96.5 241.5q0 138 -96.5 234.5t-233.5 96.5q-136 0 -233 -97q-83 -83 -98 -225l-127 46q25 163 132 271q135 136 326 136t326 -135t135 -327q0 -189 -132 -331q-87 -94 -204.5 -182l-264.5 -198q-139 -104 -168 -236h769v-127h-915
q47 319 203 435.5z" />
    <glyph glyph-name="three" unicode="3" horiz-adv-x="1220" 
d="M558 822l-89 2v126q103 1 153.5 20.5t110 82.5t59.5 148q0 86 -60 145.5t-144 59.5t-145 -59q-33 -34 -57 -98l-119 47q28 89 83 142q99 98 238 98q140 0 238 -99t98 -236q0 -139 -74.5 -219t-84.5 -84q81 -27 173 -125q132 -142 132 -331q0 -192 -135 -327t-326 -135
t-326 136q-107 108 -132 271l127 46q15 -142 98 -225q97 -97 233 -97q137 0 233.5 96.5t96.5 234.5q0 136 -95 240t-286 140z" />
    <glyph glyph-name="four" unicode="4" horiz-adv-x="1238" 
d="M806 1516h117v-959h141v-126h-141v-431h-127v431h-623zM796 1236l-403 -679h403v679z" />
    <glyph glyph-name="five" unicode="5" horiz-adv-x="1219" 
d="M333 1071q4 2 63 15q61 10 118 10q105 0 202 -33q216 -74 321 -272q66 -123 66 -253q0 -80 -25 -162q-66 -215 -265 -322q-120 -64 -249 -64q-82 0 -166 26q-172 52 -281 201l90 99q89 -133 230 -175q63 -20 124 -20q98 0 190 49q152 81 202 245q19 63 19 124
q0 98 -49 191q-81 151 -246 209q-71 24 -156 24q-114 0 -265 -48l-87 76l173 477v48h504v-127h-397z" />
    <glyph glyph-name="six" unicode="6" horiz-adv-x="1207" 
d="M211 501q0 -164 115.5 -279t279.5 -115t280 115t116 279t-116 280t-280 116t-279.5 -116t-115.5 -280zM606 1029q219 0 373 -154.5t154 -373.5q0 -218 -154 -372.5t-373 -154.5q-218 0 -372 155q-149 149 -154 335h-7q10 354 159.5 563t367.5 453l31 36h170
q-47 -59 -68 -83q-241 -269 -382 -470q58 66 255 66z" />
    <glyph glyph-name="seven" unicode="7" horiz-adv-x="1220" 
d="M815.5 973q-243.5 -273 -383 -471t-149.5 -502h-130q10 354 159.5 563.5t365 450.5t244.5 375h-768v127h912q-7 -270 -250.5 -543z" />
    <glyph glyph-name="eight" unicode="8" horiz-adv-x="1211" 
d="M604 113h4q18 -2 35 -2q137 0 234 96.5t97 234.5q0 136 -95 240q-93 101 -273 137q-181 -36 -274 -137q-95 -104 -95 -240q0 -138 97 -234.5t234 -96.5q17 0 36 2zM606 -19q-18 -1 -38 -1q-191 0 -326 135t-135 327q0 189 132 331q91 98 173 125q-11 4 -85.5 84
t-74.5 219q0 137 98 236t239 99h33q141 0 239 -99t98 -236q0 -139 -74.5 -219t-85.5 -84q82 -27 173 -125q132 -142 132 -331q0 -192 -134.5 -327t-326.5 -135q-19 0 -37 1zM603 1405q-7 1 -14 1q-85 0 -144.5 -59.5t-59.5 -145.5q0 -85 59 -148t109 -82q25 -9 53 -14
q27 5 52 14q50 19 109 82t59 148q0 86 -59.5 145.5t-144.5 59.5q-7 0 -14 -1h-5z" />
    <glyph glyph-name="nine" unicode="9" horiz-adv-x="1207" 
d="M996 989q0 164 -116 279.5t-280 115.5t-280 -115.5t-116 -279.5t116 -280t280 -116t280 116t116 280zM600 461q-219 0 -373 154.5t-154 373.5q0 218 154 372.5t373 154.5q218 0 373 -155q148 -148 154 -334h6q-10 -355 -159.5 -564t-367.5 -453l-31 -36h-170l68 83
q241 269 382 470q-58 -66 -255 -66z" />
    <glyph glyph-name="colon" unicode=":" horiz-adv-x="460" 
d="M304 165.5q31 -30.5 31 -73.5q0 -44 -31 -74.5t-74 -30.5t-74 30.5t-31 74.5q0 43 31 73.5t74 30.5t74 -30.5zM304 733q31 -30 31 -73q0 -45 -31 -75t-74 -30t-74 30t-31 75q0 43 31 73t74 30t74 -30z" />
    <glyph glyph-name="semicolon" unicode=";" horiz-adv-x="519" 
d="M394 197l-191 -398h-120l107 398h204zM307 733q31 -30 31 -73q0 -45 -31 -75t-74 -30t-74 30t-31 75q0 43 31 73t74 30t74 -30z" />
    <glyph glyph-name="semicolon" unicode="&#x37e;" horiz-adv-x="519" 
d="M394 197l-191 -398h-120l107 398h204zM307 733q31 -30 31 -73q0 -45 -31 -75t-74 -30t-74 30t-31 75q0 43 31 73t74 30t74 -30z" />
    <glyph glyph-name="less" unicode="&#x3c;" horiz-adv-x="1343" 
d="M1243 124l-1143 416l1143 416v-135l-772 -281l772 -281v-135z" />
    <glyph glyph-name="equal" unicode="=" horiz-adv-x="1030" 
d="M125 777h780v-127h-780v127zM125 483h780v-127h-780v127z" />
    <glyph glyph-name="greater" unicode="&#x3e;" horiz-adv-x="1343" 
d="M100 259l773 281l-773 281v135l1143 -416l-1143 -416v135z" />
    <glyph glyph-name="question" unicode="?" horiz-adv-x="946" 
d="M411 554q-35 -71 -35 -143q0 -55 27 -132l-118 -41q-34 98 -34 173q0 101 47 197q76 159 228 273q83 81 119 157q22 44 22 90q0 34 -12 68q-29 82 -106 119q-44 21 -89 21q-34 0 -69 -13q-81 -28 -118 -104q-21 -44 -21 -111l-125 6v29q0 65 32 128q61 125 191 170
q57 20 112 20q73 0 144 -34q124 -60 169 -189q20 -56 20 -111q0 -73 -35 -144q-58 -121 -192 -225q-104 -92 -157 -204zM406 165.5q31 -30.5 31 -73.5q0 -44 -31 -74.5t-74 -30.5t-74 30.5t-31 74.5q0 43 31 73.5t74 30.5t74 -30.5z" />
    <glyph glyph-name="at" unicode="@" horiz-adv-x="1560" 
d="M1011 469v116q-14 61 -62 109q-69 70 -166 70q-98 0 -166.5 -69.5t-68.5 -168.5q0 -97 68.5 -166t166.5 -69q97 0 166 69q48 48 62 109zM1009 255q-80 -84 -228 -84q-147 0 -252 105t-105 250q0 148 105 253t252 105q148 0 228 -84v72h119v-614q9 -22 28 -22
q29 0 95.5 94.5t66.5 194.5q0 222 -157.5 380t-379.5 158t-379 -158t-157 -380t157 -378.5t379 -156.5q152 0 234 51l84 -88q-139 -82 -318 -82q-270 0 -463 192.5t-193 461.5q0 271 192.5 463.5t463.5 192.5t462.5 -192.5t191.5 -463.5q0 -123 -90 -264t-205 -141
q-14 0 -27 2q-96 20 -104 113v20z" />
    <glyph glyph-name="A" unicode="A" horiz-adv-x="1259" 
d="M823 691l-193 531l-193 -531h386zM869 564h-479l-205 -564h-135l580 1592l579 -1592h-135z" />
    <glyph glyph-name="B" unicode="B" horiz-adv-x="1044" 
d="M436 1516q121 0 207 -86q86 -87 86 -209q0 -125 -90 -200q66 -14 162 -119q153 -154 153 -373q0 -218 -153 -377q-144 -148 -322 -151v-1h-329v1516h286zM277 925v-798h202q122 8 227 118q117 120 117 284t-116 280t-280 116h-150zM277 1389v-332h176q61 6 104 46
q49 45 49 118t-49.5 120.5t-123.5 47.5h-156z" />
    <glyph glyph-name="C" unicode="C" horiz-adv-x="1540" 
d="M1345 286l95 -85q-239 -218 -540 -218q-321 0 -548 226.5t-227 548.5q0 321 227 548t548 227q301 0 540 -217l-95 -87q-198 176 -445 176q-267 0 -456.5 -189.5t-189.5 -457.5q0 -269 189.5 -458.5t456.5 -189.5q247 0 445 176z" />
    <glyph glyph-name="D" unicode="D" horiz-adv-x="1167" 
d="M277 1386v-1256q303 0 472 170q189 189 189 458q0 268 -189 458q-169 170 -472 170zM277 1514h-16q373 0 579 -207q227 -228 227 -549q0 -322 -227 -549q-206 -207 -579 -207h16v-2h-127v1516h127v-2z" />
    <glyph glyph-name="E" unicode="E" horiz-adv-x="1055" 
d="M930 1516v-127h-653v-568h653v-126h-653v-568h653v-127h-780v1516h780z" />
    <glyph glyph-name="F" unicode="F" horiz-adv-x="963" 
d="M838 1516v-127h-561v-568h561v-126h-561v-695h-127v1516h688z" />
    <glyph glyph-name="G" unicode="G" horiz-adv-x="1565" 
d="M1424 196q-223 -213 -524 -213q-321 0 -548 226.5t-227 548.5q0 321 227 548t548 227q301 0 540 -217l-95 -87q-198 176 -445 176q-267 0 -456.5 -189.5t-189.5 -457.5q0 -269 189.5 -458.5t456.5 -189.5q230 0 397 135v460h127v-509z" />
    <glyph glyph-name="H" unicode="H" horiz-adv-x="1126" 
d="M277 660v-660h-127v1516h127v-730h572v730h127v-1516h-127v660h-572z" />
    <glyph glyph-name="I" unicode="I" horiz-adv-x="467" 
d="M297 1516v-1516h-127v1516h127z" />
    <glyph glyph-name="J" unicode="J" horiz-adv-x="855" 
d="M700 274q0 -121 -80 -201q-85 -86 -205 -86q-121 0 -205.5 85t-84.5 205l126 33q0 -100 48 -148t116 -48q67 0 116 48q43 43 43 110q0 6 -1 15v1229h127v-1242z" />
    <glyph glyph-name="K" unicode="K" horiz-adv-x="1090" 
d="M277 727v-727h-127v1516h127v-583l437 583h161l-458 -615l584 -901h-155l-512 798z" />
    <glyph glyph-name="L" unicode="L" horiz-adv-x="937" 
d="M150 0v1516h127v-1389h570v-127h-697z" />
    <glyph glyph-name="M" unicode="M" horiz-adv-x="1670" 
d="M295 1516l541 -935l539 935h145l-19 -34v-1482h-127v1262l-538 -932l-540 932v-1262h-126v1482l-20 34h145z" />
    <glyph glyph-name="N" unicode="N" horiz-adv-x="1274" 
d="M150 1516h126l721 -1249v1249h127v-1516h-117l-730 1262v-1262h-127v1516z" />
    <glyph glyph-name="O" unicode="O" horiz-adv-x="1805" 
d="M1452 1309.5q228 -227.5 228 -549.5t-228 -549.5t-550 -227.5t-549.5 227.5t-227.5 549.5t227.5 549.5t549.5 227.5t550 -227.5zM902 1409q-268 0 -458 -190t-190 -459t190 -459.5t458 -190.5q269 0 459 190.5t190 459.5t-190 459t-459 190z" />
    <glyph glyph-name="P" unicode="P" horiz-adv-x="1062" 
d="M277 511v-511h-127v1516h410q177 -24 300 -147q147 -147 147 -355q0 -209 -147 -356t-355 -147h-228zM277 1388v-750h228q155 0 265 110t110 266q0 155 -110 264.5t-265 109.5h-228z" />
    <glyph glyph-name="Q" unicode="Q" horiz-adv-x="1805" 
d="M902 1409q-268 0 -458 -190t-190 -459t190 -459.5t458 -190.5q269 0 459 190.5t190 459.5t-190 459t-459 190zM802 -17q-224 2 -449 228q-228 227 -228 549t227.5 549.5t549.5 227.5t550 -227.5t228 -549.5t-228 -549q-164 -165 -307 -195l126 -68q75 -40 104 -48
q16 -5 31 -5q28 0 54 15q41 23 53 68q4 12 6 45h128q-3 -51 -11 -79q-28 -95 -114 -144q-54 -31 -114 -31q-33 0 -67 10q-58 16 -162 81q-91 49 -128 59q-24 6 -47 6q-40 0 -77 -21q-60 -34 -78 -100q-3 -9 -6 -38h-127q4 48 11 73q32 116 138 176z" />
    <glyph glyph-name="R" unicode="R" horiz-adv-x="1062" 
d="M277 1388v-750h228q155 0 265 110t110 266q0 155 -110 264.5t-265 109.5h-228zM505 511h-228v-511h-127v1516h410q177 -24 300 -147q147 -147 147 -355q0 -209 -147 -356q-102 -102 -204 -127l345 -531h-155z" />
    <glyph glyph-name="S" unicode="S" horiz-adv-x="1013" 
d="M525 816q-162 54 -258 150.5t-96 234.5q0 136 97.5 234t236.5 98q138 0 236 -97q55 -52 82 -138l-115 -45q-22 61 -57 96q-60 60 -146 60t-146.5 -60.5t-60.5 -147.5q0 -85 61 -146q59 -59 165 -108q180 -58 305 -183q134 -133 134 -322q0 -191 -134.5 -325t-323.5 -134
q-190 0 -324 135q-107 107 -131 267l121 44q16 -139 99 -223q98 -98 235 -98q138 0 235.5 97.5t97.5 236.5q0 137 -97 234q-88 88 -216 140z" />
    <glyph glyph-name="T" unicode="T" horiz-adv-x="972" 
d="M549 1389v-1389h-126v1389h-373v127h872v-127h-373z" />
    <glyph glyph-name="U" unicode="U" horiz-adv-x="1305" 
d="M1028 1516h127v-1081q-24 -178 -147 -301q-147 -147 -355 -147q-209 0 -356 147.5t-147 354.5v1027h128v-1027q0 -154 110 -264t265 -110q156 0 265.5 110t109.5 264v1027z" />
    <glyph glyph-name="V" unicode="V" horiz-adv-x="1259" 
d="M184 1516l445 -1222l444 1222h136l-580 -1592l-579 1592h134z" />
    <glyph glyph-name="W" unicode="W" horiz-adv-x="1602" 
d="M738 248v1268h127v-1268q17 -32 45 -60q77 -74 182 -74t181.5 75t76.5 181v1146h127v-1154q-3 -152 -112 -262q-113 -113 -273 -113q-159 0 -272 112l-19 17l-19 -17q-113 -112 -272 -112q-160 0 -272 113q-110 110 -113 262v1154h127v-1146q0 -106 76.5 -181t181.5 -75
q106 0 182 74q29 28 46 60z" />
    <glyph glyph-name="X" unicode="X" horiz-adv-x="1205" 
d="M50 0l479 831l-395 685h145l322 -559l324 559h146l-397 -685l481 -831h-146l-408 705l-406 -705h-145z" />
    <glyph glyph-name="Y" unicode="Y" horiz-adv-x="1272" 
d="M572 611l-522 905h146l440 -763l440 763h146l-523 -905v-611h-127v611z" />
    <glyph glyph-name="Z" unicode="Z" horiz-adv-x="1321" 
d="M952 1389h-786v127h1005l-803 -1389h787v-127h-1005z" />
    <glyph glyph-name="bracketleft" unicode="[" horiz-adv-x="579" 
d="M252 -218h202v-127h-329v1861h329v-127h-202v-1607z" />
    <glyph glyph-name="backslash" unicode="\" horiz-adv-x="729" 
d="M779 0h-142l-687 1516h143z" />
    <glyph glyph-name="bracketright" unicode="]" horiz-adv-x="579" 
d="M327 1389h-202v127h329v-1861h-329v127h202v1607z" />
    <glyph glyph-name="asciicircum" unicode="^" horiz-adv-x="939" 
d="M531 1516l309 -535h-147l-223 385l-223 -385h-147l310 535h121z" />
    <glyph glyph-name="underscore" unicode="_" horiz-adv-x="1014" 
d="M25 16h964v-126h-964v126z" />
    <glyph glyph-name="grave" unicode="`" horiz-adv-x="716" 
d="M378 1228l188 -216h-133l-283 216h228z" />
    <glyph glyph-name="a" unicode="a" horiz-adv-x="1317" 
d="M1167 0h-127v139q-169 -165 -388 -165q-218 0 -372.5 154.5t-154.5 372.5q0 219 154.5 373.5t372.5 154.5q219 0 388 -165v83h127v-947zM1040 422v159q-21 113 -108 200q-116 116 -280 116t-280 -116t-116 -280t116 -279t280 -115t280 115q87 88 108 200z" />
    <glyph glyph-name="b" unicode="b" horiz-adv-x="1316" 
d="M150 1516h127v-650q169 163 387 163q219 0 373 -154.5t154 -373.5q0 -218 -154 -372.5t-373 -154.5q-218 0 -387 164v-138h-127v1516zM277 586v-169q22 -109 107 -195q116 -115 280 -115t280 115t116 279t-116 280t-280 116t-280 -116q-85 -85 -107 -195z" />
    <glyph glyph-name="c" unicode="c" 
d="M935 265l129 -46q-42 -59 -73 -90q-155 -155 -374 -155q-218 0 -372.5 154.5t-154.5 373.5q0 218 154.5 372.5t372.5 154.5q219 0 374 -154q31 -32 73 -89l-129 -48q-23 28 -38 44q-116 115 -280 115q-163 0 -279 -115.5t-116 -279.5t116 -279.5t279 -115.5
q164 0 280 115q15 15 38 43z" />
    <glyph glyph-name="d" unicode="d" horiz-adv-x="1317" 
d="M1167 0h-127v139q-169 -165 -388 -165q-218 0 -372.5 154.5t-154.5 372.5q0 219 154.5 373.5t372.5 154.5q219 0 388 -165v652h127v-1516zM1040 422v159q-21 113 -108 200q-116 116 -280 116t-280 -116t-116 -280t116 -279t280 -115t280 115q87 88 108 200z" />
    <glyph glyph-name="e" unicode="e" 
d="M371 192q94 -85 246 -85q164 0 280 115q15 15 38 43l129 -46q-42 -59 -73 -90q-155 -155 -374 -155q-218 0 -372.5 154.5t-154.5 373.5q0 218 154.5 372.5t372.5 154.5q187 0 328 -112q23 -19 46 -42l30 -33l-77 -77zM834 834q-82 63 -217 63q-163 0 -279 -115.5
t-116 -279.5q0 -135 63 -217z" />
    <glyph glyph-name="f" unicode="f" horiz-adv-x="534" 
d="M309 821v-821h-127v821h-92v126h92v224q6 111 85 191q82 76 189 76q55 0 137 -28l-41 -117q-56 24 -88 24q-56 0 -108 -46q-45 -44 -47 -107v-217h184v-126h-184z" />
    <glyph glyph-name="g" unicode="g" horiz-adv-x="1321" 
d="M1039 586q-22 110 -107 195q-116 116 -280 116t-280 -116t-116 -280t116 -279.5t280 -115.5t280 116q84 84 107 193v171zM1033 131l-7 -2q-155 -155 -374 -155q-218 0 -372.5 154.5t-154.5 372.5q0 219 154.5 373t372.5 154q219 0 388 -164v83h127v-724q0 -212 -151 -363
q-154 -154 -372 -154q-219 0 -374 154q-31 32 -73 90l129 46q23 -27 38 -42q116 -116 280 -116q163 0 279 116q105 105 110 177z" />
    <glyph glyph-name="h" unicode="h" horiz-adv-x="1042" 
d="M150 1516h127v-586q74 72 230 72q169 0 275.5 -107t109.5 -268v-627h-127v619q0 106 -76.5 181t-181.5 75t-182 -74q-33 -34 -48 -65v-736h-127v1516z" />
    <glyph glyph-name="i" unicode="i" horiz-adv-x="460" 
d="M293 947v-947h-127v947h127zM304 1237.5q31 -30.5 31 -73.5q0 -44 -31 -74.5t-74 -30.5t-74 30.5t-31 74.5q0 43 31 73.5t74 30.5t74 -30.5z" />
    <glyph glyph-name="j" unicode="j" horiz-adv-x="479" 
d="M49 -85q111 13 111 105v927h127v-925q0 -214 -238 -234v127zM298 1237.5q31 -30.5 31 -73.5q0 -44 -31 -74.5t-74 -30.5t-74 30.5t-31 74.5q0 43 31 73.5t74 30.5t74 -30.5z" />
    <glyph glyph-name="k" unicode="k" horiz-adv-x="833" 
d="M659 947l-242 -300l366 -647h-154l-297 544l-55 -69v-475h-127v1332h127v-654l218 269h164z" />
    <glyph glyph-name="l" unicode="l" horiz-adv-x="427" 
d="M277 1516v-1516h-127v1516h127z" />
    <glyph glyph-name="m" unicode="m" horiz-adv-x="1333" 
d="M150 947h127v9q46 45 163 45q120 0 205 -85l21 -21l22 21q85 85 205 85q121 0 205 -85q81 -81 85 -196v-720h-127v741q-2 41 -47 85q-48 48 -116 48q-67 0 -115.5 -48t-48.5 -120v-706h-126v741h-1q-2 41 -46 85q-49 48 -116 48q-68 0 -115 -48q-43 -41 -48 -100v-726
h-127v947z" />
    <glyph glyph-name="n" unicode="n" horiz-adv-x="1053" 
d="M277 719v-719h-127v947h127v-27q82 82 241 82q169 0 275.5 -107t109.5 -268v-627h-126v619q0 106 -77 181t-182 75t-182 -74q-42 -42 -59 -82z" />
    <glyph glyph-name="o" unicode="o" horiz-adv-x="1234" 
d="M617 1029q219 0 373 -154.5t154 -373.5q0 -218 -154 -372.5t-373 -154.5q-218 0 -372.5 154.5t-154.5 372.5q0 219 154.5 373.5t372.5 154.5zM337 781q-116 -116 -116 -280t116 -279t280 -115t280 115t116 279t-116 280t-280 116t-280 -116z" />
    <glyph glyph-name="p" unicode="p" horiz-adv-x="1291" 
d="M150 947h127v-81q169 162 387 162q219 0 373 -154t154 -373q0 -218 -154 -372.5t-373 -154.5q-218 0 -387 164v-483h-127v1292zM277 586v-169q22 -110 107 -195q116 -116 280 -116t280 115.5t116 279.5t-116 280t-280 116t-280 -116q-85 -85 -107 -195z" />
    <glyph glyph-name="q" unicode="q" horiz-adv-x="1292" 
d="M1142 -345h-127v484q-169 -165 -388 -165q-218 0 -372.5 154.5t-154.5 372.5q0 219 154.5 373t372.5 154q219 0 388 -164v83h127v-1292zM1015 422v159q-21 113 -108 200q-116 116 -280 116t-280 -116t-116 -280t116 -279.5t280 -115.5t280 116q87 87 108 200z" />
    <glyph glyph-name="r" unicode="r" horiz-adv-x="611" 
d="M150 947h127v-116q138 132 284 139v-135q-91 -4 -168 -82q-112 -110 -116 -265v-488h-127v947z" />
    <glyph glyph-name="s" unicode="s" horiz-adv-x="799" 
d="M406 468q-107 58 -150 101q-70 69 -70 168t70 169.5t168 70.5q99 0 165 -66q63 -64 63 -147v-19l-112 -45q-12 91 -40.5 120t-75.5 29q-46 0 -79 -32.5t-33 -79.5q0 -46 33 -79q21 -22 93 -67q120 -65 172 -117q84 -86 84 -205q0 -121 -84.5 -206t-204.5 -85
q-121 0 -205.5 85t-84.5 205l126 33q0 -101 48 -148.5t116 -47.5q67 0 115.5 47.5t48.5 116.5q0 68 -48 116q-28 27 -115 83z" />
    <glyph glyph-name="t" unicode="t" horiz-adv-x="675" 
d="M274 947v385h127v-385h184v-126h-184v-821h-127v821h-184v126h184z" />
    <glyph glyph-name="u" unicode="u" horiz-adv-x="1079" 
d="M545 -13q-179 0 -285.5 106.5t-109.5 268.5v587h127v-579q0 -106 77 -180q76 -76 190 -76q105 0 181.5 75t76.5 181v579h127v-587q-3 -162 -109 -268q-107 -107 -275 -107z" />
    <glyph glyph-name="v" unicode="v" horiz-adv-x="1057" 
d="M528 225l334 722h145l-479 -1001l-478 1001h145z" />
    <glyph glyph-name="w" unicode="w" horiz-adv-x="1333" 
d="M603 262v685h126v-666q0 -71 48.5 -119t115.5 -48q68 0 116 48q45 44 47 85v700h127v-679q-4 -115 -85 -195q-84 -86 -205 -86q-120 0 -226 106q-107 -106 -227 -106q-121 0 -205 86q-81 80 -85 195v679h127v-700q2 -41 48 -85q47 -48 115 -48q67 0 116 48q41 41 47 100z
" />
    <glyph glyph-name="x" unicode="x" horiz-adv-x="889" 
d="M764 947l-248 -429l299 -518h-147l-223 386l-223 -386h-147l300 518l-248 429h146l172 -297l172 297h147z" />
    <glyph glyph-name="y" unicode="y" horiz-adv-x="1007" 
d="M313 -345h-129l254 534l-363 758h143l286 -617l286 617h141z" />
    <glyph glyph-name="z" unicode="z" horiz-adv-x="1004" 
d="M616 808h-450v127h669l-467 -808h486v-127h-704z" />
    <glyph glyph-name="braceleft" unicode="{" horiz-adv-x="861" 
d="M165 642q36 0 102 38q98 56 129 166q17 63 17 134q0 39 -6 79q-13 68 -13 128q0 64 16 121q30 112 132 170q65 38 136 38q20 0 57 -6v-114q-40 7 -55 7q-42 0 -82 -22q-61 -35 -79 -102q-13 -48 -13 -110q0 -26 3 -55q15 -71 15 -141q0 -81 -20 -157q-43 -154 -172 -231
q129 -76 172 -230q20 -76 20 -157q0 -70 -15 -141q-3 -29 -3 -55q0 -62 13 -110q18 -67 79 -101q42 -23 85 -23q13 0 52 5v-112q-37 -6 -57 -6q-71 0 -136 38q-102 58 -132 171q-16 57 -16 121q0 60 13 127q6 40 6 79q0 71 -17 134q-31 110 -129 166q-66 38 -102 38v113z
" />
    <glyph glyph-name="bar" unicode="|" horiz-adv-x="427" 
d="M277 1516v-1861h-127v1861h127z" />
    <glyph glyph-name="braceright" unicode="}" horiz-adv-x="861" 
d="M735 529q-36 0 -102 -38q-98 -56 -129 -166q-16 -63 -16 -134q0 -39 5 -79q13 -67 13 -127q0 -64 -15 -121q-30 -113 -133 -171q-65 -38 -136 -38q-19 0 -57 6v112q39 -5 52 -5q43 0 85 23q61 34 79 101q13 48 13 110q0 26 -2 55q-15 71 -15 141q0 81 20 157
q43 154 172 230q-129 77 -172 231q-20 76 -20 157q0 70 15 141q2 29 2 55q0 62 -13 110q-18 67 -79 102q-40 22 -82 22q-15 0 -55 -7v114q38 6 57 6q71 0 136 -38q103 -58 133 -170q15 -57 15 -121q0 -60 -13 -128q-5 -40 -5 -79q0 -71 16 -134q31 -110 129 -166
q66 -38 102 -38v-113z" />
    <glyph glyph-name="asciitilde" unicode="~" horiz-adv-x="1241" 
d="M631 833q168 -97 240 -97q11 0 19 2q60 18 85 79q12 31 12 88l129 -20q-5 -68 -24 -116q-46 -111 -157 -149q-27 -8 -59 -8q-102 0 -266 94q-170 97 -241 97q-11 0 -19 -2q-60 -18 -84 -79q-13 -32 -14 -88l-127 20q3 67 23 116q46 111 158 149q26 8 57 8q103 0 268 -94z
" />
    <glyph glyph-name="exclamdown" unicode="&#xa1;" horiz-adv-x="460" 
d="M156 1354q-31 30 -31 74t31 74.5t74 30.5t74 -30.5t31 -74.5t-31 -74t-74 -30t-74 30zM168 4v1262h127v-1262h-127z" />
    <glyph glyph-name="cent" unicode="&#xa2;" horiz-adv-x="1005" 
d="M559 693q100 1 189 90q11 11 34 39l122 -45q-42 -57 -67 -83q-125 -125 -278 -127v-142h-127v152q-109 19 -206 117q-127 126 -127 305q0 178 127 305q97 97 206 117v152h127v-142q153 -2 278 -127q25 -26 67 -81l-122 -47q-23 28 -35 40q-88 88 -188 89v-612zM432 1292
q-54 -13 -117 -76q-90 -90 -90 -217t90 -216q63 -64 117 -76v585z" />
    <glyph glyph-name="sterling" unicode="&#xa3;" horiz-adv-x="1112" 
d="M476 511q3 -37 3 -58q0 -196 -108 -325q41 15 156 15q69 0 137 -15q88 -21 168 -21q71 0 156 22l24 -125q-98 -24 -180 -24q-85 0 -173 21q-88 18 -155 18q-59 0 -100 -14q-94 -35 -199 -87l-105 125q129 114 157 149q95 111 95 254q0 19 -2 39q-2 22 -3 26h-213v126h186
q-16 58 -59 141q-105 170 -118 325q-2 18 -2 37q0 136 90 243q100 120 260 135q18 1 36 1q136 0 244 -90q121 -103 136 -260q3 -22 3 -43q0 -63 -30 -132l-120 40q20 57 20 101q0 12 -1 24q-10 104 -90 172q-71 59 -161 59q-12 0 -24 -1q-105 -9 -172 -89q-60 -72 -60 -160
q0 -13 1 -26q9 -100 69 -227q81 -129 110 -250h186v-126h-162z" />
    <glyph glyph-name="currency" unicode="&#xa4;" horiz-adv-x="1101" 
d="M319 1397q90 74 232 74q141 0 231 -74l129 129l90 -90l-129 -129q74 -90 74 -232q0 -141 -74 -231l129 -129l-90 -90l-129 129q-90 -74 -231 -74q-142 0 -232 74l-129 -129l-90 90l129 129q-74 90 -74 231q0 142 74 232l-129 129l90 90zM711 1291q-69 53 -160 53
q-92 0 -161 -53q-15 -12 -29 -25q-14 -14 -26 -30q-53 -69 -53 -161q0 -91 53 -160q11 -15 26 -29q14 -15 29 -26q69 -53 161 -53q91 0 160 53q16 11 30 26q14 13 25 29q53 69 53 160q0 92 -53 161q-12 16 -25 30q-14 13 -30 25z" />
    <glyph glyph-name="yen" unicode="&#xa5;" horiz-adv-x="1272" 
d="M635 754l441 762h146l-450 -777h254v-127h-327v-67h327v-126h-327v-419h-127v419h-326v126h326v67h-326v127h253l-449 777h146z" />
    <glyph glyph-name="brokenbar" unicode="&#xa6;" horiz-adv-x="427" 
d="M277 1516v-825h-127v825h127zM277 480v-825h-127v825h127z" />
    <glyph glyph-name="section" unicode="&#xa7;" horiz-adv-x="1125" 
d="M845 381l4 1q51 51 51 189q0 137 -97 235q-88 88 -216 140q-161 54 -256 149q-42 42 -51 60h-4q-51 -52 -51 -190q0 -137 97 -235q88 -88 216 -140q162 -54 256 -149q43 -42 51 -60zM236 1286q-3 14 -3 45q0 136 97.5 234t236.5 98q138 0 236 -97q55 -53 82 -138
l-114 -46q-23 62 -57 96q-61 60 -147 60q-85 0 -146 -60t-61 -147q0 -85 61 -146q60 -59 165 -108q181 -59 305 -183q134 -133 134 -323t-88 -278q-35 -35 -47 -43q2 -14 2 -45q0 -136 -97.5 -234t-236.5 -98q-138 0 -236 97q-55 53 -82 139l115 45q22 -62 57 -96
q60 -60 146 -60t146.5 60.5t60.5 146.5t-60 146q-60 59 -166 109q-180 58 -305 182q-134 134 -134 323q0 190 88 279q35 35 48 42z" />
    <glyph glyph-name="dieresis" unicode="&#xa8;" horiz-adv-x="736" 
d="M304 1237.5q31 -30.5 31 -73.5q0 -44 -31 -74.5t-74 -30.5t-74 30.5t-31 74.5q0 43 31 73.5t74 30.5t74 -30.5zM580 1237.5q31 -30.5 31 -73.5q0 -44 -31 -74.5t-74 -30.5t-74 30.5t-31 74.5q0 43 31 73.5t74 30.5t74 -30.5z" />
    <glyph glyph-name="copyright" unicode="&#xa9;" horiz-adv-x="1353" 
d="M866 455l105 -39q-36 -50 -56 -70q-96 -96 -231 -96t-230.5 96t-95.5 231t95.5 230.5t230.5 95.5t231 -95q20 -20 56 -71l-105 -38q-19 25 -28 34q-64 63 -154 63t-154.5 -64t-64.5 -155q0 -90 64.5 -154.5t154.5 -64.5t155 64q8 8 27 33zM1079.5 983.5
q168.5 -168.5 168.5 -406.5t-168.5 -406.5t-405.5 -168.5q-238 0 -406.5 168.5t-168.5 406.5t168.5 406.5t406.5 168.5q237 0 405.5 -168.5zM674 1042q-193 0 -329.5 -136t-136.5 -329t136.5 -329.5t329.5 -136.5q192 0 328.5 136.5t136.5 329.5t-136.5 329t-328.5 136z" />
    <glyph glyph-name="guillemotleft" unicode="&#xab;" horiz-adv-x="970" 
d="M416 447l454 478v-159l-297 -319l297 -319v-160zM100 447l447 479v-160l-297 -319l297 -319v-161z" />
    <glyph glyph-name="registered" unicode="&#xae;" horiz-adv-x="1128" 
d="M482 1261v-303h84q63 0 107.5 44.5t44.5 106.5q0 63 -44.5 107.5t-107.5 44.5h-84zM668 697l-105 164h-81v-102h-95v596h206q88 -12 148 -73q72 -71 72 -173q0 -103 -72 -176q-50 -50 -76 -56l92 -140q28 16 67 54q108 109 108 260q0 153 -108 261t-259 108
q-153 0 -261 -108t-108 -261q0 -151 108 -260q51 -50 112 -77q24 -12 50 -18q46 -13 99 -13q67 0 103 14zM565 587q-194 0 -329.5 136t-135.5 328q0 193 135.5 329t329.5 136q191 0 327 -136t136 -329q0 -192 -136 -328q-48 -47 -133 -91.5t-194 -44.5z" />
    <glyph glyph-name="macron" unicode="&#xaf;" horiz-adv-x="837" 
d="M125 1265h587v-127h-587v127z" />
    <glyph glyph-name="degree" unicode="&#xb0;" horiz-adv-x="769" 
d="M550.5 1447.5q68.5 -68.5 68.5 -166.5q0 -97 -68.5 -165.5t-165.5 -68.5q-98 0 -166.5 68.5t-68.5 165.5q0 98 68.5 166.5t166.5 68.5q97 0 165.5 -68.5zM385 1407q-52 0 -89 -37t-37 -89q0 -51 37 -88t89 -37q51 0 88 37t37 88q0 52 -37 89t-88 37z" />
    <glyph glyph-name="plusminus" unicode="&#xb1;" horiz-adv-x="1030" 
d="M452 503h-327v127h327v327h126v-327h327v-127h-327v-326h-126v326zM125 127h780v-127h-780v127z" />
    <glyph glyph-name="acute" unicode="&#xb4;" horiz-adv-x="716" 
d="M566 1228l-283 -216h-133l188 216h228z" />
    <glyph glyph-name="mu" unicode="&#xb5;" horiz-adv-x="1030" 
d="M755 71q-79 -79 -248 -79q-156 0 -230 71v-408h-127v1292h127v-689q15 -32 48 -66q77 -73 182 -73t182 75q49 48 66 107v646h125v-947h-125v71z" />
    <glyph glyph-name="paragraph" unicode="&#xb6;" horiz-adv-x="1096" 
d="M798 1474v-1819h-127v939h-118q-208 0 -355 147.5t-147 355.5t147 356q123 123 300 147h53v1h496v-127h-81v-1819h-127v1819h-41z" />
    <glyph glyph-name="periodcentered" unicode="&#xb7;" horiz-adv-x="435" 
d="M282.5 823.5q27.5 -26.5 27.5 -65.5t-27.5 -65.5t-64.5 -26.5q-39 0 -66 26.5t-27 65.5t27 65.5t66 26.5q37 0 64.5 -26.5z" />
    <glyph glyph-name="periodcentered" unicode="&#x2219;" horiz-adv-x="435" 
d="M282.5 823.5q27.5 -26.5 27.5 -65.5t-27.5 -65.5t-64.5 -26.5q-39 0 -66 26.5t-27 65.5t27 65.5t66 26.5q37 0 64.5 -26.5z" />
    <glyph glyph-name="cedilla" unicode="&#xb8;" horiz-adv-x="619" 
d="M355 44l-11 -32q81 0 110 -50q13 -24 13 -49q0 -28 -15 -58q-30 -57 -81 -75q-39 -13 -82 -13h-15q-55 3 -111 41l69 62q19 -8 37 -9h7q15 0 33 5q17 4 24 17q1 2 1 4q0 6 -6 15q-8 12 -29 14q-9 1 -24 1q-26 0 -109 -7l81 134h108z" />
    <glyph glyph-name="guillemotright" unicode="&#xbb;" horiz-adv-x="970" 
d="M100 -32v160l296 319l-296 319v159l453 -478zM423 -33v161l296 319l-296 319v160l447 -479z" />
    <glyph glyph-name="questiondown" unicode="&#xbf;" horiz-adv-x="946" 
d="M535 965q35 71 35 144q0 55 -28 132l118 41q35 -98 35 -173q0 -101 -48 -198q-76 -158 -227 -273q-83 -81 -120 -156q-21 -45 -21 -90q0 -34 11 -68q29 -82 107 -119q44 -21 89 -21q34 0 69 12q81 29 118 105q21 43 21 110l125 -5v-29q0 -65 -32 -128q-61 -125 -191 -171
q-57 -19 -112 -19q-73 0 -144 33q-124 60 -169 190q-20 55 -20 111q0 73 34 144q59 121 193 225q104 91 157 203zM540 1354q-31 30 -31 74t31 74.5t74 30.5t73.5 -30.5t30.5 -74.5t-30.5 -74t-73.5 -30t-74 30z" />
    <glyph glyph-name="Agrave" unicode="&#xc0;" horiz-adv-x="1259" 
d="M823 691l-193 531l-193 -531h386zM869 564h-479l-205 -564h-135l580 1592l579 -1592h-135zM526 1879l188 -216h-133l-283 216h228z" />
    <glyph glyph-name="Aacute" unicode="&#xc1;" horiz-adv-x="1259" 
d="M823 691l-193 531l-193 -531h386zM869 564h-479l-205 -564h-135l580 1592l579 -1592h-135zM961 1879l-283 -216h-133l188 216h228z" />
    <glyph glyph-name="Acircumflex" unicode="&#xc2;" horiz-adv-x="1259" 
d="M823 691l-193 531l-193 -531h386zM869 564h-479l-205 -564h-135l580 1592l579 -1592h-135zM683 1839l264 -260h-157l-164 126l-154 -126h-157l254 260h114z" />
    <glyph glyph-name="Atilde" unicode="&#xc3;" horiz-adv-x="1259" 
d="M823 691l-193 531l-193 -531h386zM869 564h-479l-205 -564h-135l580 1592l579 -1592h-135zM638 1770q63 -50 100 -50h4q29 2 48 77h107q-26 -158 -111 -183q-23 -6 -45 -6q-60 0 -119 47q-63 49 -101 49h-4q-29 -1 -48 -77h-107q27 158 112 183q22 7 44 7q60 0 120 -47z
" />
    <glyph glyph-name="Adieresis" unicode="&#xc4;" horiz-adv-x="1259" 
d="M823 691l-193 531l-193 -531h386zM869 564h-479l-205 -564h-135l580 1592l579 -1592h-135zM566 1804.5q31 -30.5 31 -73.5q0 -44 -31 -74.5t-74 -30.5t-74 30.5t-31 74.5q0 43 31 73.5t74 30.5t74 -30.5zM842 1804.5q31 -30.5 31 -73.5q0 -44 -31 -74.5t-74 -30.5
t-74 30.5t-31 74.5q0 43 31 73.5t74 30.5t74 -30.5z" />
    <glyph glyph-name="Aring" unicode="&#xc5;" horiz-adv-x="1259" 
d="M823 691l-193 531l-193 -531h386zM622 1526h15q7 1 14 8q9 10 9 22q0 13 -9 22t-21 9q-13 0 -22.5 -9t-9.5 -22q0 -12 10 -22q7 -7 14 -8zM688 1432l521 -1432h-135l-205 564h-479l-205 -564h-135l521 1432q-11 3 -37 29q-39 40 -39 95q0 56 39.5 95.5t95.5 39.5
q55 0 94.5 -39.5t39.5 -95.5q0 -55 -40 -95q-26 -26 -36 -29z" />
    <glyph glyph-name="AE" unicode="&#xc6;" horiz-adv-x="1693" 
d="M1568 821v-126h-653v-568h653v-127h-780v564h-276l-251 -564h-136l659 1516h784v-127h-653v-568h653zM788 691v526l-226 -526h226z" />
    <glyph glyph-name="Ccedilla" unicode="&#xc7;" horiz-adv-x="1540" 
d="M837 -16q-268 8 -485 226q-227 226 -227 548q0 321 227 548t548 227q301 0 540 -217l-95 -87q-198 176 -445 176q-267 0 -456.5 -189.5t-189.5 -457.5q0 -269 189.5 -458.5t456.5 -189.5q247 0 445 176l95 -85q-223 -204 -482 -217l6 19q81 0 111 -50q13 -24 13 -49
q0 -28 -15 -59q-30 -56 -81 -74q-39 -13 -82 -13h-16q-54 3 -110 41l68 61q20 -7 37 -8h8q15 0 33 4q16 5 24 18q3 7 3 11v2q-16 18 -37 20q-9 1 -24 1q-26 0 -110 -7z" />
    <glyph glyph-name="Egrave" unicode="&#xc8;" horiz-adv-x="1055" 
d="M930 1516v-127h-653v-568h653v-126h-653v-568h653v-127h-780v1516h780zM501 1851l189 -216h-134l-283 216h228z" />
    <glyph glyph-name="Eacute" unicode="&#xc9;" horiz-adv-x="1055" 
d="M930 1516v-127h-653v-568h653v-126h-653v-568h653v-127h-780v1516h780zM807 1851l-283 -216h-134l189 216h228z" />
    <glyph glyph-name="Ecircumflex" unicode="&#xca;" horiz-adv-x="1055" 
d="M930 1516v-127h-653v-568h653v-126h-653v-568h653v-127h-780v1516h780zM594 1835l264 -260h-157l-163 126l-155 -126h-157l254 260h114z" />
    <glyph glyph-name="Edieresis" unicode="&#xcb;" horiz-adv-x="1055" 
d="M930 1516v-127h-653v-568h653v-126h-653v-568h653v-127h-780v1516h780zM476 1814q31 -30 31 -74t-31 -74.5t-74 -30.5t-74 30.5t-31 74.5t31 74t74 30t74 -30zM752 1814q31 -30 31 -74t-31 -74.5t-74 -30.5t-74 30.5t-31 74.5t31 74t74 30t74 -30z" />
    <glyph glyph-name="Igrave" unicode="&#xcc;" horiz-adv-x="512" 
d="M320 1516v-1516h-126v1516h126zM154 1851l188 -216h-133l-283 216h228z" />
    <glyph glyph-name="Iacute" unicode="&#xcd;" horiz-adv-x="512" 
d="M319 1516v-1516h-127v1516h127zM586 1851l-283 -216h-133l188 216h228z" />
    <glyph glyph-name="Icircumflex" unicode="&#xce;" horiz-adv-x="490" 
d="M308 1516v-1516h-127v1516h127zM298 1839l263 -260h-157l-163 126l-154 -126h-157l254 260h114z" />
    <glyph glyph-name="Idieresis" unicode="&#xcf;" horiz-adv-x="436" 
d="M281 1516v-1516h-127v1516h127zM154 1814q31 -30 31 -74t-31 -74.5t-74 -30.5t-74 30.5t-31 74.5t31 74t74 30t74 -30zM430 1814q31 -30 31 -74t-31 -74.5t-74 -30.5t-74 30.5t-31 74.5t31 74t74 30t74 -30z" />
    <glyph glyph-name="Eth" unicode="&#xd0;" horiz-adv-x="1239" 
d="M197 821v695h127v-2h-16q373 0 579 -207q227 -228 227 -549q0 -322 -227 -549q-206 -207 -579 -207h16v-2h-127v695h-147v126h147zM324 821h340v-126h-340v-565q303 0 472 170q190 189 190 458q0 268 -190 458q-169 170 -472 170v-565z" />
    <glyph glyph-name="Ntilde" unicode="&#xd1;" horiz-adv-x="1274" 
d="M150 1516h126l721 -1249v1249h127v-1516h-117l-730 1262v-1262h-127v1516zM646 1770q63 -50 100 -50h4q29 2 48 77h106q-25 -158 -110 -183q-23 -6 -45 -6q-60 0 -120 47q-63 49 -100 49h-4q-29 -1 -48 -77h-108q27 158 112 183q23 7 45 7q60 0 120 -47z" />
    <glyph glyph-name="Ograve" unicode="&#xd2;" horiz-adv-x="1805" 
d="M1452 1309.5q228 -227.5 228 -549.5t-228 -549.5t-550 -227.5t-549.5 227.5t-227.5 549.5t227.5 549.5t549.5 227.5t550 -227.5zM902 1409q-268 0 -458 -190t-190 -459t190 -459.5t458 -190.5q269 0 459 190.5t190 459.5t-190 459t-459 190zM864 1851l188 -216h-133
l-283 216h228z" />
    <glyph glyph-name="Oacute" unicode="&#xd3;" horiz-adv-x="1805" 
d="M1452 1309.5q228 -227.5 228 -549.5t-228 -549.5t-550 -227.5t-549.5 227.5t-227.5 549.5t227.5 549.5t549.5 227.5t550 -227.5zM902 1409q-268 0 -458 -190t-190 -459t190 -459.5t458 -190.5q269 0 459 190.5t190 459.5t-190 459t-459 190zM1169 1851l-283 -216h-133
l188 216h228z" />
    <glyph glyph-name="Ocircumflex" unicode="&#xd4;" horiz-adv-x="1805" 
d="M1452 1309.5q228 -227.5 228 -549.5t-228 -549.5t-550 -227.5t-549.5 227.5t-227.5 549.5t227.5 549.5t549.5 227.5t550 -227.5zM902 1409q-268 0 -458 -190t-190 -459t190 -459.5t458 -190.5q269 0 459 190.5t190 459.5t-190 459t-459 190zM956 1885l264 -260h-157
l-163 126l-155 -126h-156l253 260h114z" />
    <glyph glyph-name="Otilde" unicode="&#xd5;" horiz-adv-x="1805" 
d="M1452 1309.5q228 -227.5 228 -549.5t-228 -549.5t-550 -227.5t-549.5 227.5t-227.5 549.5t227.5 549.5t549.5 227.5t550 -227.5zM902 1409q-268 0 -458 -190t-190 -459t190 -459.5t458 -190.5q269 0 459 190.5t190 459.5t-190 459t-459 190zM911 1789q63 -51 101 -51h4
q29 2 48 78h106q-26 -158 -111 -183q-22 -7 -44 -7q-61 0 -120 47q-63 50 -100 50h-4q-29 -2 -48 -77h-108q27 158 112 183q23 6 45 6q60 0 119 -46z" />
    <glyph glyph-name="Odieresis" unicode="&#xd6;" horiz-adv-x="1805" 
d="M1452 1309.5q228 -227.5 228 -549.5t-228 -549.5t-550 -227.5t-549.5 227.5t-227.5 549.5t227.5 549.5t549.5 227.5t550 -227.5zM902 1409q-268 0 -458 -190t-190 -459t190 -459.5t458 -190.5q269 0 459 190.5t190 459.5t-190 459t-459 190zM838 1814q31 -30 31 -74
t-31 -74.5t-74 -30.5t-73.5 30.5t-30.5 74.5t30.5 74t73.5 30t74 -30zM1114 1814q31 -30 31 -74t-31 -74.5t-74 -30.5t-73.5 30.5t-30.5 74.5t30.5 74t73.5 30t74 -30z" />
    <glyph glyph-name="multiply" unicode="&#xd7;" horiz-adv-x="1062" 
d="M531 477l-231 -231l-90 90l231 231l-231 231l90 90l231 -231l231 231l89 -91l-231 -230l231 -231l-89 -90z" />
    <glyph glyph-name="Oslash" unicode="&#xd8;" horiz-adv-x="1805" 
d="M1118 1374q-87 35 -216 35q-268 0 -458 -190t-190 -459t190 -459q69 -69 127 -102zM686 145q88 -35 216 -35q269 0 459 190.5t190 459.5t-189 459q-70 69 -129 101zM1288 1437q79 -43 164 -127q228 -228 228 -550t-228 -549.5t-550 -227.5q-156 0 -270 46l-80 -171
l-115 54l80 170q-80 44 -164 129q-228 227 -228 549t227.5 549.5t549.5 227.5q156 0 271 -46l79 170l116 -53z" />
    <glyph glyph-name="Ugrave" unicode="&#xd9;" horiz-adv-x="1305" 
d="M1028 1516h127v-1081q-24 -178 -147 -301q-147 -147 -355 -147q-209 0 -356 147.5t-147 354.5v1027h128v-1027q0 -154 110 -264t265 -110q156 0 265.5 110t109.5 264v1027zM613 1851l189 -216h-133l-283 216h227z" />
    <glyph glyph-name="Uacute" unicode="&#xda;" horiz-adv-x="1305" 
d="M1028 1516h127v-1081q-24 -178 -147 -301q-147 -147 -355 -147q-209 0 -356 147.5t-147 354.5v1027h128v-1027q0 -154 110 -264t265 -110q156 0 265.5 110t109.5 264v1027zM920 1851l-283 -216h-133l188 216h228z" />
    <glyph glyph-name="Ucircumflex" unicode="&#xdb;" horiz-adv-x="1305" 
d="M1028 1516h127v-1081q-24 -178 -147 -301q-147 -147 -355 -147q-209 0 -356 147.5t-147 354.5v1027h128v-1027q0 -154 110 -264t265 -110q156 0 265.5 110t109.5 264v1027zM706 1839l264 -260h-157l-163 126l-155 -126h-156l253 260h114z" />
    <glyph glyph-name="Udieresis" unicode="&#xdc;" horiz-adv-x="1305" 
d="M1028 1516h127v-1081q-24 -178 -147 -301q-147 -147 -355 -147q-209 0 -356 147.5t-147 354.5v1027h128v-1027q0 -154 110 -264t265 -110q156 0 265.5 110t109.5 264v1027zM589 1804.5q31 -30.5 31 -73.5q0 -44 -31 -74.5t-74 -30.5t-74 30.5t-31 74.5q0 43 31 73.5
t74 30.5t74 -30.5zM865 1804.5q31 -30.5 31 -73.5q0 -44 -31 -74.5t-74 -30.5t-74 30.5t-31 74.5q0 43 31 73.5t74 30.5t74 -30.5z" />
    <glyph glyph-name="Yacute" unicode="&#xdd;" horiz-adv-x="1272" 
d="M572 611l-522 905h146l440 -763l440 763h146l-523 -905v-611h-127v611zM903 1851l-283 -216h-133l188 216h228z" />
    <glyph glyph-name="Thorn" unicode="&#xde;" horiz-adv-x="1097" 
d="M277 1261h283q177 -24 300 -147q147 -147 147 -355q0 -209 -147 -356t-355 -147h-228v-256h-127v1516h127v-255zM277 383h228q155 0 265 110t110 266q0 155 -110 264.5t-265 109.5h-228v-750z" />
    <glyph glyph-name="agrave" unicode="&#xe0;" horiz-adv-x="1317" 
d="M1167 0h-127v139q-169 -165 -388 -165q-218 0 -372.5 154.5t-154.5 372.5q0 219 154.5 373.5t372.5 154.5q219 0 388 -165v83h127v-947zM1040 422v159q-21 113 -108 200q-116 116 -280 116t-280 -116t-116 -280t116 -279t280 -115t280 115q87 88 108 200zM597 1328
l188 -216h-133l-283 216h228z" />
    <glyph glyph-name="aacute" unicode="&#xe1;" horiz-adv-x="1317" 
d="M1167 0h-127v139q-169 -165 -388 -165q-218 0 -372.5 154.5t-154.5 372.5q0 219 154.5 373.5t372.5 154.5q219 0 388 -165v83h127v-947zM1040 422v159q-21 113 -108 200q-116 116 -280 116t-280 -116t-116 -280t116 -279t280 -115t280 115q87 88 108 200zM923 1328
l-283 -216h-133l188 216h228z" />
    <glyph glyph-name="acircumflex" unicode="&#xe2;" horiz-adv-x="1317" 
d="M1167 0h-127v139q-169 -165 -388 -165q-218 0 -372.5 154.5t-154.5 372.5q0 219 154.5 373.5t372.5 154.5q219 0 388 -165v83h127v-947zM1040 422v159q-21 113 -108 200q-116 116 -280 116t-280 -116t-116 -280t116 -279t280 -115t280 115q87 88 108 200zM698 1362
l263 -259h-157l-163 125l-154 -125h-157l254 259h114z" />
    <glyph glyph-name="atilde" unicode="&#xe3;" horiz-adv-x="1317" 
d="M1167 0h-127v139q-169 -165 -388 -165q-218 0 -372.5 154.5t-154.5 372.5q0 219 154.5 373.5t372.5 154.5q219 0 388 -165v83h127v-947zM1040 422v159q-21 113 -108 200q-116 116 -280 116t-280 -116t-116 -280t116 -279t280 -115t280 115q87 88 108 200zM655 1294
q63 -51 101 -51h4q29 2 47 78h107q-26 -158 -111 -183q-22 -7 -45 -7q-60 0 -119 47q-63 50 -101 50h-3q-30 -2 -48 -77h-108q27 158 112 183q22 6 45 6q60 0 119 -46z" />
    <glyph glyph-name="adieresis" unicode="&#xe4;" horiz-adv-x="1317" 
d="M1167 0h-127v139q-169 -165 -388 -165q-218 0 -372.5 154.5t-154.5 372.5q0 219 154.5 373.5t372.5 154.5q219 0 388 -165v83h127v-947zM1040 422v159q-21 113 -108 200q-116 116 -280 116t-280 -116t-116 -280t116 -279t280 -115t280 115q87 88 108 200zM582 1337.5
q31 -30.5 31 -73.5q0 -44 -31 -74.5t-74 -30.5t-74 30.5t-31 74.5q0 43 31 73.5t74 30.5t74 -30.5zM858 1337.5q31 -30.5 31 -73.5q0 -44 -31 -74.5t-74 -30.5t-74 30.5t-31 74.5q0 43 31 73.5t74 30.5t74 -30.5z" />
    <glyph glyph-name="aring" unicode="&#xe5;" horiz-adv-x="1317" 
d="M1040 422v159q-21 113 -108 200q-116 116 -280 116t-280 -116t-116 -280t116 -279t280 -115t280 115q87 88 108 200zM647 1138q-13 0 -22.5 -9t-9.5 -22q0 -12 9.5 -21.5t22.5 -9.5q12 0 21 9.5t9 21.5q0 13 -9 22t-21 9zM741 1012h2q145 0 283 -137l14 -11v83h127v-947
h-127v139q5 7 5 8q-2 0 -19 -18q-155 -155 -374 -155q-218 0 -372.5 154.5t-154.5 372.5q0 219 155 374q134 134 271 137q-40 40 -40 95q0 56 40 95.5t96 39.5q55 0 94.5 -39.5t39.5 -95.5q0 -55 -40 -95z" />
    <glyph glyph-name="ae" unicode="&#xe6;" horiz-adv-x="2057" 
d="M965 691q-26 48 -68 90q-116 116 -280 116t-280 -116t-116 -280t116 -279t280 -115t280 115q42 42 68 90q29 52 40 109v160q-11 58 -40 110zM1814 654q-18 61 -85 127q-115 116 -279 116t-280 -116q-24 -24 -38 -42v-85h682zM1132 265q14 -20 38 -42q116 -116 280 -116
t279 115q21 21 48 55l129 -45q-31 -52 -83 -103q-154 -155 -373 -155q-206 0 -318 104v-78h-127v139q-169 -165 -388 -165q-218 0 -372.5 154.5t-154.5 372.5q0 219 154.5 373.5t372.5 154.5q219 0 388 -165v83h127v-21q112 103 318 103q219 0 373 -154q137 -138 143 -349
l-834 1v-262z" />
    <glyph glyph-name="ccedilla" unicode="&#xe7;" 
d="M551 -23q-162 8 -306 152q-155 154 -155 373q0 218 154.5 372.5t372.5 154.5q219 0 374 -154q31 -32 73 -89l-129 -48q-23 28 -38 44q-116 115 -280 115q-163 0 -279 -115.5t-116 -279.5t116 -279.5t279 -115.5q164 0 280 115q15 15 38 43l129 -46q-42 -59 -73 -90
q-126 -125 -274 -125q-16 0 -32 1q74 -15 98.5 -44t24.5 -55q0 -29 -16 -58q-30 -56 -80 -74q-40 -13 -82 -13h-15q-55 3 -112 40l70 62q19 -7 37 -9h7q16 0 33 5q16 5 23 18q1 4 1 8q0 7 -5 13q-8 9 -29 12q-10 1 -24 1q-26 0 -109 -8z" />
    <glyph glyph-name="egrave" unicode="&#xe8;" horiz-adv-x="1243" 
d="M371 192q94 -85 246 -85q164 0 280 115q15 15 38 43l129 -46q-42 -59 -73 -90q-155 -155 -374 -155q-218 0 -372.5 154.5t-154.5 373.5q0 218 154.5 372.5t372.5 154.5q187 0 328 -112q23 -19 46 -42l30 -33l-77 -77zM834 834q-82 63 -217 63q-163 0 -279 -115.5
t-116 -279.5q0 -135 63 -217zM573 1328l188 -216h-133l-283 216h228z" />
    <glyph glyph-name="eacute" unicode="&#xe9;" horiz-adv-x="1243" 
d="M371 192q94 -85 246 -85q164 0 280 115q15 15 38 43l129 -46q-42 -59 -73 -90q-155 -155 -374 -155q-218 0 -372.5 154.5t-154.5 373.5q0 218 154.5 372.5t372.5 154.5q187 0 328 -112q23 -19 46 -42l30 -33l-77 -77zM834 834q-82 63 -217 63q-163 0 -279 -115.5
t-116 -279.5q0 -135 63 -217zM878 1328l-283 -216h-133l188 216h228z" />
    <glyph glyph-name="ecircumflex" unicode="&#xea;" horiz-adv-x="1243" 
d="M371 192q94 -85 246 -85q164 0 280 115q15 15 38 43l129 -46q-42 -59 -73 -90q-155 -155 -374 -155q-218 0 -372.5 154.5t-154.5 373.5q0 218 154.5 372.5t372.5 154.5q187 0 328 -112q23 -19 46 -42l30 -33l-77 -77zM834 834q-82 63 -217 63q-163 0 -279 -115.5
t-116 -279.5q0 -135 63 -217zM666 1362l263 -259h-157l-163 125l-154 -125h-157l254 259h114z" />
    <glyph glyph-name="edieresis" unicode="&#xeb;" horiz-adv-x="1243" 
d="M371 192q94 -85 246 -85q164 0 280 115q15 15 38 43l129 -46q-42 -59 -73 -90q-155 -155 -374 -155q-218 0 -372.5 154.5t-154.5 373.5q0 218 154.5 372.5t372.5 154.5q187 0 328 -112q23 -19 46 -42l30 -33l-77 -77zM834 834q-82 63 -217 63q-163 0 -279 -115.5
t-116 -279.5q0 -135 63 -217zM547.5 1337.5q30.5 -30.5 30.5 -73.5q0 -44 -30.5 -74.5t-73.5 -30.5t-74 30.5t-31 74.5q0 43 31 73.5t74 30.5t73.5 -30.5zM823.5 1337.5q30.5 -30.5 30.5 -73.5q0 -44 -30.5 -74.5t-73.5 -30.5t-74 30.5t-31 74.5q0 43 31 73.5t74 30.5
t73.5 -30.5z" />
    <glyph glyph-name="igrave" unicode="&#xec;" horiz-adv-x="512" 
d="M320 947v-947h-126v947h126zM154 1328l188 -216h-133l-283 216h228z" />
    <glyph glyph-name="iacute" unicode="&#xed;" horiz-adv-x="512" 
d="M319 947v-947h-127v947h127zM586 1328l-283 -216h-133l188 216h228z" />
    <glyph glyph-name="icircumflex" unicode="&#xee;" horiz-adv-x="490" 
d="M308 947v-947h-127v947h127zM298 1362l263 -259h-157l-163 125l-154 -125h-157l254 259h114z" />
    <glyph glyph-name="idieresis" unicode="&#xef;" horiz-adv-x="436" 
d="M281 947v-947h-127v947h127zM154 1337.5q31 -30.5 31 -73.5q0 -44 -31 -74.5t-74 -30.5t-74 30.5t-31 74.5q0 43 31 73.5t74 30.5t74 -30.5zM430 1337.5q31 -30.5 31 -73.5q0 -44 -31 -74.5t-74 -30.5t-74 30.5t-31 74.5q0 43 31 73.5t74 30.5t74 -30.5z" />
    <glyph glyph-name="ntilde" unicode="&#xf1;" horiz-adv-x="1053" 
d="M277 719v-719h-127v947h127v-27q82 82 241 82q169 0 275.5 -107t109.5 -268v-627h-126v619q0 106 -77 181t-182 75t-182 -74q-42 -42 -59 -82zM535 1294q63 -51 101 -51h4q29 2 47 78h107q-26 -158 -111 -183q-22 -7 -45 -7q-60 0 -119 47q-63 50 -100 50h-4
q-30 -2 -48 -77h-108q27 158 112 183q22 6 45 6q60 0 119 -46z" />
    <glyph glyph-name="ograve" unicode="&#xf2;" horiz-adv-x="1234" 
d="M617 1029q219 0 373 -154.5t154 -373.5q0 -218 -154 -372.5t-373 -154.5q-218 0 -372.5 154.5t-154.5 372.5q0 219 154.5 373.5t372.5 154.5zM337 781q-116 -116 -116 -280t116 -279t280 -115t280 115t116 279t-116 280t-280 116t-280 -116zM578 1328l189 -216h-133
l-283 216h227z" />
    <glyph glyph-name="oacute" unicode="&#xf3;" horiz-adv-x="1234" 
d="M617 1029q219 0 373 -154.5t154 -373.5q0 -218 -154 -372.5t-373 -154.5q-218 0 -372.5 154.5t-154.5 372.5q0 219 154.5 373.5t372.5 154.5zM337 781q-116 -116 -116 -280t116 -279t280 -115t280 115t116 279t-116 280t-280 116t-280 -116zM884 1328l-283 -216h-133
l188 216h228z" />
    <glyph glyph-name="ocircumflex" unicode="&#xf4;" horiz-adv-x="1234" 
d="M617 1029q219 0 373 -154.5t154 -373.5q0 -218 -154 -372.5t-373 -154.5q-218 0 -372.5 154.5t-154.5 372.5q0 219 154.5 373.5t372.5 154.5zM337 781q-116 -116 -116 -280t116 -279t280 -115t280 115t116 279t-116 280t-280 116t-280 -116zM671 1362l264 -259h-157
l-163 125l-155 -125h-157l254 259h114z" />
    <glyph glyph-name="otilde" unicode="&#xf5;" horiz-adv-x="1234" 
d="M617 1029q219 0 373 -154.5t154 -373.5q0 -218 -154 -372.5t-373 -154.5q-218 0 -372.5 154.5t-154.5 372.5q0 219 154.5 373.5t372.5 154.5zM337 781q-116 -116 -116 -280t116 -279t280 -115t280 115t116 279t-116 280t-280 116t-280 -116zM626 1294q63 -51 101 -51h4
q29 2 47 78h107q-26 -158 -111 -183q-22 -7 -45 -7q-60 0 -119 47q-63 50 -101 50h-4q-29 -2 -47 -77h-108q27 158 112 183q22 6 45 6q60 0 119 -46z" />
    <glyph glyph-name="odieresis" unicode="&#xf6;" horiz-adv-x="1234" 
d="M617 1029q219 0 373 -154.5t154 -373.5q0 -218 -154 -372.5t-373 -154.5q-218 0 -372.5 154.5t-154.5 372.5q0 219 154.5 373.5t372.5 154.5zM337 781q-116 -116 -116 -280t116 -279t280 -115t280 115t116 279t-116 280t-280 116t-280 -116zM553 1337.5
q31 -30.5 31 -73.5q0 -44 -31 -74.5t-74 -30.5t-74 30.5t-31 74.5q0 43 31 73.5t74 30.5t74 -30.5zM829 1337.5q31 -30.5 31 -73.5q0 -44 -31 -74.5t-74 -30.5t-74 30.5t-31 74.5q0 43 31 73.5t74 30.5t74 -30.5z" />
    <glyph glyph-name="divide" unicode="&#xf7;" horiz-adv-x="1030" 
d="M125 650h780v-127h-780v127zM589 894.5q31 -30.5 31 -73.5q0 -44 -31 -74.5t-74 -30.5t-74 30.5t-31 74.5q0 43 31 73.5t74 30.5t74 -30.5zM589 426.5q31 -30.5 31 -73.5q0 -44 -31 -74.5t-74 -30.5t-74 30.5t-31 74.5q0 43 31 73.5t74 30.5t74 -30.5z" />
    <glyph glyph-name="oslash" unicode="&#xf8;" horiz-adv-x="1234" 
d="M759 874q-53 24 -142 24q-164 0 -280 -116t-116 -280t116 -279q24 -24 30 -28zM868 810l-393 -679q53 -24 142 -24q164 0 280 115.5t116 279.5t-116 280q-24 24 -29 28zM301 80q-22 15 -56 50q-155 154 -155 372q0 219 154.5 373.5t372.5 154.5q124 0 209 -41l113 196
l112 -58l-117 -202q22 -15 57 -49q153 -155 153 -374q0 -218 -154 -372.5t-373 -154.5q-124 0 -208 41l-113 -196l-113 54z" />
    <glyph glyph-name="ugrave" unicode="&#xf9;" horiz-adv-x="1079" 
d="M545 -13q-179 0 -285.5 106.5t-109.5 268.5v587h127v-579q0 -106 77 -180q76 -76 190 -76q105 0 181.5 75t76.5 181v579h127v-587q-3 -162 -109 -268q-107 -107 -275 -107zM500 1328l189 -216h-133l-283 216h227z" />
    <glyph glyph-name="uacute" unicode="&#xfa;" horiz-adv-x="1079" 
d="M545 -13q-179 0 -285.5 106.5t-109.5 268.5v587h127v-579q0 -106 77 -180q76 -76 190 -76q105 0 181.5 75t76.5 181v579h127v-587q-3 -162 -109 -268q-107 -107 -275 -107zM807 1328l-283 -216h-134l189 216h228z" />
    <glyph glyph-name="ucircumflex" unicode="&#xfb;" horiz-adv-x="1079" 
d="M545 -13q-179 0 -285.5 106.5t-109.5 268.5v587h127v-579q0 -106 77 -180q76 -76 190 -76q105 0 181.5 75t76.5 181v579h127v-587q-3 -162 -109 -268q-107 -107 -275 -107zM593 1362l264 -259h-157l-163 125l-155 -125h-157l254 259h114z" />
    <glyph glyph-name="udieresis" unicode="&#xfc;" horiz-adv-x="1079" 
d="M545 -13q-179 0 -285.5 106.5t-109.5 268.5v587h127v-579q0 -106 77 -180q76 -76 190 -76q105 0 181.5 75t76.5 181v579h127v-587q-3 -162 -109 -268q-107 -107 -275 -107zM476 1337.5q31 -30.5 31 -73.5q0 -44 -31 -74.5t-74 -30.5t-74 30.5t-31 74.5q0 43 31 73.5
t74 30.5t74 -30.5zM752 1337.5q31 -30.5 31 -73.5q0 -44 -31 -74.5t-74 -30.5t-74 30.5t-31 74.5q0 43 31 73.5t74 30.5t74 -30.5z" />
    <glyph glyph-name="yacute" unicode="&#xfd;" horiz-adv-x="1007" 
d="M482 6l-169 -351h-129l254 534l-363 758h143l286 -617l286 617h141l-449 -942v1zM770 1328l-283 -216h-133l188 216h228z" />
    <glyph glyph-name="thorn" unicode="&#xfe;" horiz-adv-x="1292" 
d="M256 602v-201q24 -100 104 -179q116 -116 280 -116q163 0 279 115.5t116 279.5t-116 280t-279 116q-164 0 -280 -116q-80 -79 -104 -179zM256 869q166 159 384 159t372.5 -154t154.5 -373q0 -218 -154.5 -372.5t-372.5 -154.5t-384 160v-463h-127v1661h127v-463z" />
    <glyph glyph-name="ydieresis" unicode="&#xff;" horiz-adv-x="1007" 
d="M482 6l-169 -351h-129l254 534l-363 758h143l286 -617l286 617h141l-449 -942v1zM439.5 1337.5q30.5 -30.5 30.5 -73.5q0 -44 -30.5 -74.5t-73.5 -30.5t-74 30.5t-31 74.5q0 43 31 73.5t74 30.5t73.5 -30.5zM715.5 1337.5q30.5 -30.5 30.5 -73.5q0 -44 -30.5 -74.5
t-73.5 -30.5t-74 30.5t-31 74.5q0 43 31 73.5t74 30.5t73.5 -30.5z" />
    <glyph glyph-name="dotlessi" unicode="&#x131;" horiz-adv-x="467" 
d="M297 947v-947h-127v947h127z" />
    <glyph glyph-name="circumflex" unicode="&#x2c6;" horiz-adv-x="871" 
d="M489 1262l263 -259h-157l-163 125l-154 -125h-157l254 259h114z" />
    <glyph glyph-name="caron" unicode="&#x2c7;" horiz-adv-x="871" 
d="M375 1003l-254 259h157l154 -125l163 125h157l-263 -259h-114z" />
    <glyph glyph-name="uni02C9" unicode="&#x2c9;" horiz-adv-x="887" 
d="M150 1173h587v-109h-587v109z" />
    <glyph glyph-name="breve" unicode="&#x2d8;" horiz-adv-x="889" 
d="M315 1275q9 -60 39 -90q38 -38 91 -38t91 38q30 30 38 90h111q-11 -108 -71 -169q-69 -70 -169 -70t-169 70q-66 67 -71 169h110z" />
    <glyph glyph-name="dotaccent" unicode="&#x2d9;" horiz-adv-x="435" 
d="M282.5 1216.5q27.5 -26.5 27.5 -65.5t-27.5 -65.5t-64.5 -26.5q-39 0 -66 26.5t-27 65.5t27 65.5t66 26.5q37 0 64.5 -26.5z" />
    <glyph glyph-name="ring" unicode="&#x2da;" horiz-adv-x="786" 
d="M489.5 1265.5q39.5 -39.5 39.5 -95.5q0 -55 -39.5 -94.5t-95.5 -39.5t-95.5 39.5t-39.5 94.5q0 56 39.5 95.5t95.5 39.5t95.5 -39.5zM394 1201q-13 0 -22 -9t-9 -22q0 -12 9 -21.5t22 -9.5q12 0 21.5 9.5t9.5 21.5q0 13 -9.5 22t-21.5 9z" />
    <glyph glyph-name="ogonek" unicode="&#x2db;" horiz-adv-x="779" 
d="M473 21q-91 -35 -115 -59q-21 -21 -21 -50l1 -1q0 -30 21 -52q21 -20 47 -20t81 42l39 -88l-13 -14q-43 -42 -108 -42h-3q-66 0 -116 49q-51 51 -51 122q0 1 1 2q0 72 51 123q46 46 115 46h13z" />
    <glyph glyph-name="tilde" unicode="&#x2dc;" horiz-adv-x="835" 
d="M426 1194q63 -51 101 -51h4q29 2 47 78h107q-26 -158 -111 -183q-22 -7 -45 -7q-60 0 -119 47q-63 50 -101 50h-3q-30 -2 -48 -77h-108q27 158 112 183q22 6 45 6q60 0 119 -46z" />
    <glyph glyph-name="hungarumlaut" unicode="&#x2dd;" horiz-adv-x="926" 
d="M566 1211l-283 -216h-133l188 216h228zM807 1211l-283 -216h-133l188 216h228z" />
    <glyph glyph-name="endash" unicode="&#x2013;" horiz-adv-x="853" 
d="M50 630h753v-127h-753v127z" />
    <glyph glyph-name="emdash" unicode="&#x2014;" horiz-adv-x="1438" 
d="M50 630h1338v-127h-1338v127z" />
    <glyph glyph-name="quoteleft" unicode="&#x2018;" horiz-adv-x="311" 
d="M206 1382q2 0 23 -21q31 -31 31 -75q0 -43 -31 -73.5t-74 -30.5t-74 30.5t-31 73.5q0 24 8 45l97 195h105z" />
    <glyph glyph-name="quoteright" unicode="&#x2019;" horiz-adv-x="311" 
d="M105 1326q-3 1 -23 22q-31 30 -31 74t30.5 74t73.5 30q44 0 74.5 -30t30.5 -74q0 -23 -8 -45l-97 -195h-105z" />
    <glyph glyph-name="quotesinglbase" unicode="&#x201a;" horiz-adv-x="311" 
d="M105 -6q-3 1 -23 22q-31 30 -31 74q0 43 30.5 73.5t73.5 30.5q44 0 74.5 -30.5t30.5 -73.5q0 -23 -8 -45l-97 -195h-105z" />
    <glyph glyph-name="quotedblleft" unicode="&#x201c;" horiz-adv-x="542" 
d="M206 1382q2 0 23 -21q31 -31 31 -75q0 -43 -31 -73.5t-74 -30.5t-74 30.5t-31 73.5q0 24 8 45l97 195h105zM437 1382q3 0 24 -21q30 -31 30 -75q0 -43 -30.5 -73.5t-73.5 -30.5t-74 30.5t-31 73.5q0 24 8 45l97 195h105z" />
    <glyph glyph-name="quotedblright" unicode="&#x201d;" horiz-adv-x="542" 
d="M105 1326q-3 1 -23 22q-31 30 -31 74t30.5 74t73.5 30q44 0 74.5 -30t30.5 -74q0 -23 -8 -45l-97 -195h-105zM337 1326q-3 1 -23 22q-31 30 -31 74t30.5 74t73.5 30t74 -30t31 -74q0 -23 -8 -45l-97 -195h-105z" />
    <glyph glyph-name="quotedblbase" unicode="&#x201e;" horiz-adv-x="542" 
d="M105 -6q-3 1 -23 22q-31 30 -31 74q0 43 30.5 73.5t73.5 30.5q44 0 74.5 -30.5t30.5 -73.5q0 -23 -8 -45l-97 -195h-105zM337 -6q-3 1 -23 22q-31 30 -31 74q0 43 30.5 73.5t73.5 30.5t74 -30.5t31 -73.5q0 -23 -8 -45l-97 -195h-105z" />
    <glyph glyph-name="dagger" unicode="&#x2020;" horiz-adv-x="757" 
d="M330 1512v201h97v-201h230v-97h-230v-1256h-97v1256h-230v97h230z" />
    <glyph glyph-name="daggerdbl" unicode="&#x2021;" horiz-adv-x="757" 
d="M330 1415h-230v97h230v201h97v-201h230v-97h-230v-402h230v-98h-230v-756h-97v756h-230v98h230v402z" />
    <glyph glyph-name="bullet" unicode="&#x2022;" horiz-adv-x="2620" 
d="M1041 1359h546l308 -392l-64 -302q126 42 126 134q-20 24 -20 48q0 78 140 78q104 0 210 -140q68 -56 258 -112q0 -28 -20 -28q0 -14 6 -22q-6 -34 -56 -43q-18 -3 -42 -3q-44 0 -108 10q24 -20 136 -20q21 4 37 4t27 -4q0 -54 -204 -84l-126 8q114 -56 190 -56h42v-8
q-52 -70 -190 -70q-70 0 -160 36q0 -44 160 -98q0 -28 -76 -36q-44 0 -190 64q0 -34 70 -92q-5 -3 -17 -3q-36 0 -137 31l22 -62l-28 -8q-38 0 -134 106l-62 -294h-742l-84 294q-74 -94 -120 -106l-28 8l14 62q-86 -42 -132 -42l-14 22q63 38 63 76q0 4 -1 8
q-128 -64 -188 -64q-70 8 -70 36q154 52 154 95v3q-72 -36 -154 -36h-28q-110 0 -162 70v8h42q76 0 133 17t57 39l-140 -8q-190 34 -190 84l14 8l50 -8q47 -2 81 -2q67 0 81 8l-156 11t-76 33l6 20l-20 8v28q224 62 294 146q74 106 174 106q140 0 140 -78q0 -24 -20 -48
q22 -134 112 -134l-70 302zM1288 778q0 39 50 76q17 -37 43 -178q5 -30 5 -62q0 -116 -73 -250q115 101 178 199q51 80 51 155q0 17 -2 34q-14 91 -28 138q-14 48 -25 107l-163 -59q-16 -9 -36 -17v3q-6 70 -31 73q-53 -37 -176 -96q47 -14 47 -44v-252q0 -6 -11 -13
t-39 -21q48 -72 99 -72q23 0 47 15q75 46 120 60q-45 11 -50.5 23.5t-5.5 18.5v162z" />
    <glyph glyph-name="ellipsis" unicode="&#x2026;" horiz-adv-x="2068" 
d="M279 165.5q31 -30.5 31 -73.5q0 -44 -31 -74.5t-74 -30.5t-74 30.5t-31 74.5q0 43 31 73.5t74 30.5t74 -30.5zM907 165.5q31 -30.5 31 -73.5q0 -44 -31 -74.5t-74 -30.5t-74 30.5t-31 74.5q0 43 31 73.5t74 30.5t74 -30.5zM1535.5 165.5q30.5 -30.5 30.5 -73.5
q0 -44 -30.5 -74.5t-73.5 -30.5q-44 0 -74.5 30.5t-30.5 74.5q0 43 30.5 73.5t74.5 30.5q43 0 73.5 -30.5z" />
    <glyph glyph-name="guilsinglleft" unicode="&#x2039;" horiz-adv-x="647" 
d="M100 447l447 479v-160l-297 -319l297 -319v-161z" />
    <glyph glyph-name="guilsinglright" unicode="&#x203a;" horiz-adv-x="647" 
d="M100 -33v161l296 319l-296 319v160l447 -479z" />
    <glyph glyph-name="fraction" unicode="&#x2044;" horiz-adv-x="1073" 
d="M1023 1343l-869 -1242l-104 72l870 1242z" />
    <glyph glyph-name="fraction" unicode="&#x2215;" horiz-adv-x="1073" 
d="M1023 1343l-869 -1242l-104 72l870 1242z" />
    <glyph glyph-name="franc" unicode="&#x20a3;" horiz-adv-x="987" 
d="M199 475v1041h688v-127h-561v-568h561v-126h-561v-220h265v-127h-265v-348h-127v348h-149v127h149z" />
    <glyph glyph-name="lira" unicode="&#x20a4;" horiz-adv-x="1112" 
d="M280 739q-2 5 -19 39q-105 170 -118 325q-2 18 -2 37q0 136 90 243q100 120 260 135q18 1 36 1q136 0 244 -90q121 -103 136 -260q3 -22 3 -43q0 -63 -30 -132l-120 40q20 57 20 101q0 12 -1 24q-10 104 -90 172q-71 59 -161 59q-12 0 -24 -1q-105 -9 -172 -89
q-60 -72 -60 -160q0 -13 1 -26q9 -100 69 -227q49 -79 76 -148h220v-127h-179q8 -28 12 -67h167v-126h-159q-5 -169 -108 -291q41 15 156 15q69 0 137 -15q88 -21 168 -21q71 0 156 22l24 -125q-98 -24 -180 -24q-85 0 -173 21q-88 18 -155 18q-59 0 -100 -14
q-94 -35 -199 -87l-105 125q129 114 157 149q93 110 94 227h-217v126h208q-4 29 -15 67h-193v127h146z" />
    <glyph glyph-name="Euro" unicode="&#x20ac;" horiz-adv-x="1405" 
d="M259 858v131q0 218 155 372.5t372 154.5q219 0 389 -170l-93 -93q-132 131 -296 131q-163 0 -279 -115.5t-116 -279.5v-131h609l-25 -127h-584v-66h570l-25 -127h-545v-37q0 -164 116 -279t279 -115q164 0 280 115q72 72 104 177h135q-39 -164 -146 -270
q-154 -155 -373 -155q-217 0 -372 154.5t-155 372.5v37h-159l25 127h134v66h-120l25 127h95z" />
    <glyph glyph-name="afii61352" unicode="&#x2116;" horiz-adv-x="1954" 
d="M1752 1464h77v-626h-698v76h621v550zM1414 1085q83 4 127 47q47 46 47 113q0 66 -47 113q-44 43 -127 47q-84 -4 -127 -47q-47 -47 -47 -113q0 -67 47 -113q43 -43 127 -47zM1400 970q-115 0 -195 80.5t-80 194.5t80 194.5t195 80.5h27q115 0 195 -80.5t80 -194.5
t-80 -194.5t-195 -80.5h-27zM125 1516h126l721 -1249v1249h127v-1516h-117l-730 1262v-1262h-127v1516z" />
    <glyph glyph-name="trademark" unicode="&#x2122;" horiz-adv-x="1231" 
d="M465 1432h-101v-556h-97v556h-167v91h451l233 -358l233 358l86 1v-648h-96v459l-223 -343l-223 343v-459h-96v556z" />
    <glyph glyph-name="minus" unicode="&#x2212;" horiz-adv-x="1030" 
d="M125 630h780v-127h-780v127z" />
    <glyph glyph-name="approxequal" unicode="&#x2248;" horiz-adv-x="1241" 
d="M631 957q168 -97 240 -97q11 0 19 2q60 18 85 79q12 31 12 88l129 -20q-5 -67 -24 -116q-46 -111 -157 -149q-27 -8 -59 -8q-102 0 -266 94q-170 97 -241 97q-11 0 -19 -2q-60 -18 -84 -78q-13 -33 -14 -89l-127 20q3 68 23 116q46 112 158 149q26 8 57 8q103 0 268 -94z
M631 686q168 -97 240 -97q11 0 19 2q60 18 85 79q12 31 12 88l129 -20q-5 -68 -24 -116q-46 -112 -157 -149q-27 -8 -59 -8q-102 0 -266 94q-170 97 -241 97q-11 0 -19 -2q-60 -18 -84 -79q-13 -32 -14 -88l-127 20q3 67 23 116q46 111 158 149q26 8 57 8q103 0 268 -94z
" />
    <glyph glyph-name="lessequal" unicode="&#x2264;" horiz-adv-x="1343" 
d="M1243 134l-1143 416l1143 416v-135l-772 -281l772 -281v-135zM187 127h1056v-127h-1056v127z" />
    <glyph glyph-name="greaterequal" unicode="&#x2265;" horiz-adv-x="1343" 
d="M100 269l773 281l-773 281v135l1143 -416l-1143 -416v135zM100 127h1056v-127h-1056v127z" />
    <glyph glyph-name="ordfeminine" unicode="&#xaa;" horiz-adv-x="868" 
d="M173 912h529v-72h-602v622h73v-550zM768 985h-95v28q-58 -40 -170 -40q-113 0 -192 80t-79 192t79 191.5t192 79.5q112 0 170 -62v22h95v-491zM673 1207v74q-8 49 -48 87q-50 51 -122 51q-73 0 -124 -51t-51 -123q0 -73 51 -123.5t124 -50.5q72 0 122 50q40 39 48 86z
" />
    <glyph glyph-name="ordmasculine" unicode="&#xba;" horiz-adv-x="901" 
d="M517 1071q90 4 137 50q50 51 50 124q0 72 -50 123q-47 46 -137 51q-91 -5 -137 -51q-52 -51 -52 -123q0 -73 51 -124q47 -46 138 -50zM503 973q-113 0 -192 80t-79 192t79 191.5t192 79.5h27q113 0 192 -79.5t79 -191.5t-79 -192t-192 -80h-27zM173 912h529v-72h-602v622
h73v-550z" />
    <glyph glyph-name="eth" unicode="&#xf0;" horiz-adv-x="1234" 
d="M221 501q0 -164 116 -279t280 -115t280 115t116 279t-116 280t-280 116t-280 -116t-116 -280zM924 932q34 -25 67 -57q153 -155 153 -374q0 -218 -154 -372.5t-373 -154.5q-218 0 -372.5 154.5t-154.5 372.5q0 219 154.5 373.5t378.5 157.5l-6 6h-166v127h52l-96 105h177
l106 -105h163v-127h-35z" />
    <glyph glyph-name="Amacron" unicode="&#x100;" horiz-adv-x="1259" 
d="M823 691l-193 531l-193 -531h386zM869 564h-479l-205 -564h-135l580 1592l579 -1592h-135zM336 1791h587v-109h-587v109z" />
    <glyph glyph-name="amacron" unicode="&#x101;" horiz-adv-x="1317" 
d="M1167 0h-127v139q-169 -165 -388 -165q-218 0 -372.5 154.5t-154.5 372.5q0 219 154.5 373.5t372.5 154.5q219 0 388 -165v83h127v-947zM1040 422v159q-21 113 -108 200q-116 116 -280 116t-280 -116t-116 -280t116 -279t280 -115t280 115q87 88 108 200zM353 1273h587
v-109h-587v109z" />
    <glyph glyph-name="Abreve" unicode="&#x102;" horiz-adv-x="1259" 
d="M823 691l-193 531l-193 -531h386zM869 564h-479l-205 -564h-135l580 1592l579 -1592h-135zM499 1893q9 -60 39 -90q38 -38 91 -38t91 38q30 30 38 90h111q-11 -108 -71 -169q-69 -70 -169 -70t-169 70q-66 67 -71 169h110z" />
    <glyph glyph-name="abreve" unicode="&#x103;" horiz-adv-x="1317" 
d="M1167 0h-127v139q-169 -165 -388 -165q-218 0 -372.5 154.5t-154.5 372.5q0 219 154.5 373.5t372.5 154.5q219 0 388 -165v83h127v-947zM1040 422v159q-21 113 -108 200q-116 116 -280 116t-280 -116t-116 -280t116 -279t280 -115t280 115q87 88 108 200zM516 1375
q9 -60 39 -90q38 -38 91 -38t91 38q30 30 38 90h111q-11 -108 -71 -169q-69 -70 -169 -70t-169 70q-66 67 -71 169h110z" />
    <glyph glyph-name="Cacute" unicode="&#x106;" horiz-adv-x="1540" 
d="M1345 286l95 -85q-239 -218 -540 -218q-321 0 -548 226.5t-227 548.5q0 321 227 548t548 227q301 0 540 -217l-95 -87q-198 176 -445 176q-267 0 -456.5 -189.5t-189.5 -457.5q0 -269 189.5 -458.5t456.5 -189.5q247 0 445 176zM1060 1846l-283 -216h-133l188 216h228z
" />
    <glyph glyph-name="cacute" unicode="&#x107;" 
d="M935 265l129 -46q-42 -59 -73 -90q-155 -155 -374 -155q-218 0 -372.5 154.5t-154.5 373.5q0 218 154.5 372.5t372.5 154.5q219 0 374 -154q31 -32 73 -89l-129 -48q-23 28 -38 44q-116 115 -280 115q-163 0 -279 -115.5t-116 -279.5t116 -279.5t279 -115.5
q164 0 280 115q15 15 38 43zM855 1328l-283 -216h-133l188 216h228z" />
    <glyph glyph-name="Ccircumflex" unicode="&#x108;" horiz-adv-x="1540" 
d="M1345 286l95 -85q-239 -218 -540 -218q-321 0 -548 226.5t-227 548.5q0 321 227 548t548 227q301 0 540 -217l-95 -87q-198 176 -445 176q-267 0 -456.5 -189.5t-189.5 -457.5q0 -269 189.5 -458.5t456.5 -189.5q247 0 445 176zM935 1880l263 -259h-157l-163 125
l-154 -125h-157l254 259h114z" />
    <glyph glyph-name="ccircumflex" unicode="&#x109;" 
d="M935 265l129 -46q-42 -59 -73 -90q-155 -155 -374 -155q-218 0 -372.5 154.5t-154.5 373.5q0 218 154.5 372.5t372.5 154.5q219 0 374 -154q31 -32 73 -89l-129 -48q-23 28 -38 44q-116 115 -280 115q-163 0 -279 -115.5t-116 -279.5t116 -279.5t279 -115.5
q164 0 280 115q15 15 38 43zM660 1362l263 -259h-157l-163 125l-154 -125h-157l254 259h114z" />
    <glyph glyph-name="Cdotaccent" unicode="&#x10a;" horiz-adv-x="1540" 
d="M1345 286l95 -85q-239 -218 -540 -218q-321 0 -548 226.5t-227 548.5q0 321 227 548t548 227q301 0 540 -217l-95 -87q-198 176 -445 176q-267 0 -456.5 -189.5t-189.5 -457.5q0 -269 189.5 -458.5t456.5 -189.5q247 0 445 176zM947.5 1784.5q27.5 -26.5 27.5 -65.5
t-27.5 -65.5t-64.5 -26.5q-39 0 -66 26.5t-27 65.5t27 65.5t66 26.5q37 0 64.5 -26.5z" />
    <glyph glyph-name="cdotaccent" unicode="&#x10b;" 
d="M935 265l129 -46q-42 -59 -73 -90q-155 -155 -374 -155q-218 0 -372.5 154.5t-154.5 373.5q0 218 154.5 372.5t372.5 154.5q219 0 374 -154q31 -32 73 -89l-129 -48q-23 28 -38 44q-116 115 -280 115q-163 0 -279 -115.5t-116 -279.5t116 -279.5t279 -115.5
q164 0 280 115q15 15 38 43zM642.5 1316.5q27.5 -26.5 27.5 -65.5t-27.5 -65.5t-64.5 -26.5q-39 0 -66 26.5t-27 65.5t27 65.5t66 26.5q37 0 64.5 -26.5z" />
    <glyph glyph-name="Ccaron" unicode="&#x10c;" horiz-adv-x="1540" 
d="M1345 286l95 -85q-239 -218 -540 -218q-321 0 -548 226.5t-227 548.5q0 321 227 548t548 227q301 0 540 -217l-95 -87q-198 176 -445 176q-267 0 -456.5 -189.5t-189.5 -457.5q0 -269 189.5 -458.5t456.5 -189.5q247 0 445 176zM821 1621l-254 259h157l154 -125l163 125
h157l-263 -259h-114z" />
    <glyph glyph-name="ccaron" unicode="&#x10d;" 
d="M935 265l129 -46q-42 -59 -73 -90q-155 -155 -374 -155q-218 0 -372.5 154.5t-154.5 373.5q0 218 154.5 372.5t372.5 154.5q219 0 374 -154q31 -32 73 -89l-129 -48q-23 28 -38 44q-116 115 -280 115q-163 0 -279 -115.5t-116 -279.5t116 -279.5t279 -115.5
q164 0 280 115q15 15 38 43zM556 1103l-254 259h157l154 -125l163 125h157l-263 -259h-114z" />
    <glyph glyph-name="Dcroat" unicode="&#x110;" horiz-adv-x="1239" 
d="M197 821v695h127v-2h-16q373 0 579 -207q227 -228 227 -549q0 -322 -227 -549q-206 -207 -579 -207h16v-2h-127v695h-147v126h147zM324 821h340v-126h-340v-565q303 0 472 170q190 189 190 458q0 268 -190 458q-169 170 -472 170v-565z" />
    <glyph glyph-name="dcroat" unicode="&#x111;" horiz-adv-x="1309" 
d="M1040 422v159q-21 113 -108 200q-116 116 -280 116t-280 -116t-116 -280t116 -279t280 -115t280 115q87 88 108 200zM1167 1180v-1180h-127v139l-14 -10q-155 -155 -374 -155q-218 0 -372.5 154.5t-154.5 372.5q0 219 154.5 373.5t372.5 154.5q219 0 374 -154l14 -11v316
h-267v127h267v209h127v-209h91v-127h-91z" />
    <glyph glyph-name="Emacron" unicode="&#x112;" horiz-adv-x="1055" 
d="M930 1516v-127h-653v-568h653v-126h-653v-568h653v-127h-780v1516h780zM247 1691h587v-109h-587v109z" />
    <glyph glyph-name="emacron" unicode="&#x113;" 
d="M371 192q94 -85 246 -85q164 0 280 115q15 15 38 43l129 -46q-42 -59 -73 -90q-155 -155 -374 -155q-218 0 -372.5 154.5t-154.5 373.5q0 218 154.5 372.5t372.5 154.5q187 0 328 -112q23 -19 46 -42l30 -33l-77 -77zM834 834q-82 63 -217 63q-163 0 -279 -115.5
t-116 -279.5q0 -135 63 -217zM284 1273h587v-109h-587v109z" />
    <glyph glyph-name="Ebreve" unicode="&#x114;" horiz-adv-x="1055" 
d="M930 1516v-127h-653v-568h653v-126h-653v-568h653v-127h-780v1516h780zM410 1813q9 -60 39 -90q38 -38 91 -38t91 38q30 30 38 90h111q-11 -108 -71 -169q-69 -70 -169 -70t-169 70q-66 67 -71 169h110z" />
    <glyph glyph-name="ebreve" unicode="&#x115;" 
d="M371 192q94 -85 246 -85q164 0 280 115q15 15 38 43l129 -46q-42 -59 -73 -90q-155 -155 -374 -155q-218 0 -372.5 154.5t-154.5 373.5q0 218 154.5 372.5t372.5 154.5q187 0 328 -112q23 -19 46 -42l30 -33l-77 -77zM834 834q-82 63 -217 63q-163 0 -279 -115.5
t-116 -279.5q0 -135 63 -217zM447 1375q9 -60 39 -90q38 -38 91 -38t91 38q30 30 38 90h111q-11 -108 -71 -169q-69 -70 -169 -70t-169 70q-66 67 -71 169h110z" />
    <glyph glyph-name="Edotaccent" unicode="&#x116;" horiz-adv-x="1055" 
d="M930 1516v-127h-653v-568h653v-126h-653v-568h653v-127h-780v1516h780zM605.5 1764.5q27.5 -26.5 27.5 -65.5t-27.5 -65.5t-64.5 -26.5q-39 0 -66 26.5t-27 65.5t27 65.5t66 26.5q37 0 64.5 -26.5z" />
    <glyph glyph-name="edotaccent" unicode="&#x117;" 
d="M371 192q94 -85 246 -85q164 0 280 115q15 15 38 43l129 -46q-42 -59 -73 -90q-155 -155 -374 -155q-218 0 -372.5 154.5t-154.5 373.5q0 218 154.5 372.5t372.5 154.5q187 0 328 -112q23 -19 46 -42l30 -33l-77 -77zM834 834q-82 63 -217 63q-163 0 -279 -115.5
t-116 -279.5q0 -135 63 -217zM642.5 1316.5q27.5 -26.5 27.5 -65.5t-27.5 -65.5t-64.5 -26.5q-39 0 -66 26.5t-27 65.5t27 65.5t66 26.5q37 0 64.5 -26.5z" />
    <glyph glyph-name="Ecaron" unicode="&#x11a;" horiz-adv-x="1055" 
d="M930 1516v-127h-653v-568h653v-126h-653v-568h653v-127h-780v1516h780zM478 1611l-254 259h157l154 -125l163 125h157l-263 -259h-114z" />
    <glyph glyph-name="ecaron" unicode="&#x11b;" 
d="M371 192q94 -85 246 -85q164 0 280 115q15 15 38 43l129 -46q-42 -59 -73 -90q-155 -155 -374 -155q-218 0 -372.5 154.5t-154.5 373.5q0 218 154.5 372.5t372.5 154.5q187 0 328 -112q23 -19 46 -42l30 -33l-77 -77zM834 834q-82 63 -217 63q-163 0 -279 -115.5
t-116 -279.5q0 -135 63 -217zM515 1103l-254 259h157l154 -125l163 125h157l-263 -259h-114z" />
    <glyph glyph-name="Gcircumflex" unicode="&#x11c;" horiz-adv-x="1565" 
d="M1424 196q-223 -213 -524 -213q-321 0 -548 226.5t-227 548.5q0 321 227 548t548 227q301 0 540 -217l-95 -87q-198 176 -445 176q-267 0 -456.5 -189.5t-189.5 -457.5q0 -269 189.5 -458.5t456.5 -189.5q230 0 397 135v460h127v-509zM935 1880l263 -259h-157l-163 125
l-154 -125h-157l254 259h114z" />
    <glyph glyph-name="gcircumflex" unicode="&#x11d;" horiz-adv-x="1321" 
d="M1039 586q-22 110 -107 195q-116 116 -280 116t-280 -116t-116 -280t116 -279.5t280 -115.5t280 116q84 84 107 193v171zM1033 131l-7 -2q-155 -155 -374 -155q-218 0 -372.5 154.5t-154.5 372.5q0 219 154.5 373t372.5 154q219 0 388 -164v83h127v-724q0 -212 -151 -363
q-154 -154 -372 -154q-219 0 -374 154q-31 32 -73 90l129 46q23 -27 38 -42q116 -116 280 -116q163 0 279 116q105 105 110 177zM698 1362l263 -259h-157l-163 125l-154 -125h-157l254 259h114z" />
    <glyph glyph-name="Gbreve" unicode="&#x11e;" horiz-adv-x="1565" 
d="M1424 196q-223 -213 -524 -213q-321 0 -548 226.5t-227 548.5q0 321 227 548t548 227q301 0 540 -217l-95 -87q-198 176 -445 176q-267 0 -456.5 -189.5t-189.5 -457.5q0 -269 189.5 -458.5t456.5 -189.5q230 0 397 135v460h127v-509zM753 1893q9 -60 39 -90
q38 -38 91 -38t91 38q30 30 38 90h111q-11 -108 -71 -169q-69 -70 -169 -70t-169 70q-66 67 -71 169h110z" />
    <glyph glyph-name="gbreve" unicode="&#x11f;" horiz-adv-x="1321" 
d="M1039 586q-22 110 -107 195q-116 116 -280 116t-280 -116t-116 -280t116 -279.5t280 -115.5t280 116q84 84 107 193v171zM1033 131l-7 -2q-155 -155 -374 -155q-218 0 -372.5 154.5t-154.5 372.5q0 219 154.5 373t372.5 154q219 0 388 -164v83h127v-724q0 -212 -151 -363
q-154 -154 -372 -154q-219 0 -374 154q-31 32 -73 90l129 46q23 -27 38 -42q116 -116 280 -116q163 0 279 116q105 105 110 177zM506 1375q9 -60 39 -90q38 -38 91 -38t91 38q30 30 38 90h111q-11 -108 -71 -169q-69 -70 -169 -70t-169 70q-66 67 -71 169h110z" />
    <glyph glyph-name="Gdotaccent" unicode="&#x120;" horiz-adv-x="1565" 
d="M1424 196q-223 -213 -524 -213q-321 0 -548 226.5t-227 548.5q0 321 227 548t548 227q301 0 540 -217l-95 -87q-198 176 -445 176q-267 0 -456.5 -189.5t-189.5 -457.5q0 -269 189.5 -458.5t456.5 -189.5q230 0 397 135v460h127v-509zM947.5 1824.5
q27.5 -26.5 27.5 -65.5t-27.5 -65.5t-64.5 -26.5q-39 0 -66 26.5t-27 65.5t27 65.5t66 26.5q37 0 64.5 -26.5z" />
    <glyph glyph-name="gdotaccent" unicode="&#x121;" horiz-adv-x="1321" 
d="M1039 586q-22 110 -107 195q-116 116 -280 116t-280 -116t-116 -280t116 -279.5t280 -115.5t280 116q84 84 107 193v171zM1033 131l-7 -2q-155 -155 -374 -155q-218 0 -372.5 154.5t-154.5 372.5q0 219 154.5 373t372.5 154q219 0 388 -164v83h127v-724q0 -212 -151 -363
q-154 -154 -372 -154q-219 0 -374 154q-31 32 -73 90l129 46q23 -27 38 -42q116 -116 280 -116q163 0 279 116q105 105 110 177zM711.5 1316.5q27.5 -26.5 27.5 -65.5t-27.5 -65.5t-64.5 -26.5q-39 0 -66 26.5t-27 65.5t27 65.5t66 26.5q37 0 64.5 -26.5z" />
    <glyph glyph-name="Ibreve" unicode="&#x12c;" horiz-adv-x="467" 
d="M297 1516v-1516h-127v1516h127zM104 1893q9 -60 39 -90q38 -38 91 -38t91 38q30 30 38 90h111q-11 -108 -71 -169q-69 -70 -169 -70t-169 70q-66 67 -71 169h110z" />
    <glyph glyph-name="ibreve" unicode="&#x12d;" horiz-adv-x="467" 
d="M297 947v-947h-127v947h127zM104 1375q9 -60 39 -90q38 -38 91 -38t91 38q30 30 38 90h111q-11 -108 -71 -169q-69 -70 -169 -70t-169 70q-66 67 -71 169h110z" />
    <glyph glyph-name="Ldot" unicode="&#x13f;" horiz-adv-x="937" 
d="M150 0v1516h127v-1389h570v-127h-697zM764.5 823.5q27.5 -26.5 27.5 -65.5t-27.5 -65.5t-64.5 -26.5q-39 0 -66 26.5t-27 65.5t27 65.5t66 26.5q37 0 64.5 -26.5z" />
    <glyph glyph-name="ldot" unicode="&#x140;" horiz-adv-x="612" 
d="M277 1516v-1516h-127v1516h127zM534.5 823.5q27.5 -26.5 27.5 -65.5t-27.5 -65.5t-64.5 -26.5q-39 0 -66 26.5t-27 65.5t27 65.5t66 26.5q37 0 64.5 -26.5z" />
    <glyph glyph-name="Nacute" unicode="&#x143;" horiz-adv-x="1274" 
d="M150 1516h126l721 -1249v1249h127v-1516h-117l-730 1262v-1262h-127v1516zM914 1846l-283 -216h-133l188 216h228z" />
    <glyph glyph-name="nacute" unicode="&#x144;" horiz-adv-x="1053" 
d="M277 719v-719h-127v947h127v-27q82 82 241 82q169 0 275.5 -107t109.5 -268v-627h-126v619q0 106 -77 181t-182 75t-182 -74q-42 -42 -59 -82zM804 1328l-283 -216h-133l188 216h228z" />
    <glyph glyph-name="Ncaron" unicode="&#x147;" horiz-adv-x="1274" 
d="M150 1516h126l721 -1249v1249h127v-1516h-117l-730 1262v-1262h-127v1516zM575 1621l-254 259h157l154 -125l163 125h157l-263 -259h-114z" />
    <glyph glyph-name="ncaron" unicode="&#x148;" horiz-adv-x="1053" 
d="M277 719v-719h-127v947h127v-27q82 82 241 82q169 0 275.5 -107t109.5 -268v-627h-126v619q0 106 -77 181t-182 75t-182 -74q-42 -42 -59 -82zM465 1103l-254 259h157l154 -125l163 125h157l-263 -259h-114z" />
    <glyph glyph-name="Omacron" unicode="&#x14c;" horiz-adv-x="1805" 
d="M1452 1309.5q228 -227.5 228 -549.5t-228 -549.5t-550 -227.5t-549.5 227.5t-227.5 549.5t227.5 549.5t549.5 227.5t550 -227.5zM902 1409q-268 0 -458 -190t-190 -459t190 -459.5t458 -190.5q269 0 459 190.5t190 459.5t-190 459t-459 190zM609 1791h587v-109h-587v109z
" />
    <glyph glyph-name="omacron" unicode="&#x14d;" horiz-adv-x="1234" 
d="M617 1029q219 0 373 -154.5t154 -373.5q0 -218 -154 -372.5t-373 -154.5q-218 0 -372.5 154.5t-154.5 372.5q0 219 154.5 373.5t372.5 154.5zM337 781q-116 -116 -116 -280t116 -279t280 -115t280 115t116 279t-116 280t-280 116t-280 -116zM324 1273h587v-109h-587v109z
" />
    <glyph glyph-name="Obreve" unicode="&#x14e;" horiz-adv-x="1805" 
d="M1452 1309.5q228 -227.5 228 -549.5t-228 -549.5t-550 -227.5t-549.5 227.5t-227.5 549.5t227.5 549.5t549.5 227.5t550 -227.5zM902 1409q-268 0 -458 -190t-190 -459t190 -459.5t458 -190.5q269 0 459 190.5t190 459.5t-190 459t-459 190zM772 1893q9 -60 39 -90
q38 -38 91 -38t91 38q30 30 38 90h111q-11 -108 -71 -169q-69 -70 -169 -70t-169 70q-66 67 -71 169h110z" />
    <glyph glyph-name="obreve" unicode="&#x14f;" horiz-adv-x="1234" 
d="M617 1029q219 0 373 -154.5t154 -373.5q0 -218 -154 -372.5t-373 -154.5q-218 0 -372.5 154.5t-154.5 372.5q0 219 154.5 373.5t372.5 154.5zM337 781q-116 -116 -116 -280t116 -279t280 -115t280 115t116 279t-116 280t-280 116t-280 -116zM487 1375q9 -60 39 -90
q38 -38 91 -38t91 38q30 30 38 90h111q-11 -108 -71 -169q-69 -70 -169 -70t-169 70q-66 67 -71 169h110z" />
    <glyph glyph-name="Ohungarumlaut" unicode="&#x150;" horiz-adv-x="1805" 
d="M1452 1309.5q228 -227.5 228 -549.5t-228 -549.5t-550 -227.5t-549.5 227.5t-227.5 549.5t227.5 549.5t549.5 227.5t550 -227.5zM902 1409q-268 0 -458 -190t-190 -459t190 -459.5t458 -190.5q269 0 459 190.5t190 459.5t-190 459t-459 190zM1090 1829l-283 -216h-133
l188 216h228zM1331 1829l-283 -216h-133l188 216h228z" />
    <glyph glyph-name="ohungarumlaut" unicode="&#x151;" horiz-adv-x="1234" 
d="M617 1029q219 0 373 -154.5t154 -373.5q0 -218 -154 -372.5t-373 -154.5q-218 0 -372.5 154.5t-154.5 372.5q0 219 154.5 373.5t372.5 154.5zM337 781q-116 -116 -116 -280t116 -279t280 -115t280 115t116 279t-116 280t-280 116t-280 -116zM805 1311l-283 -216h-133
l188 216h228zM1046 1311l-283 -216h-133l188 216h228z" />
    <glyph glyph-name="OE" unicode="&#x152;" horiz-adv-x="2173" 
d="M1332 1389q14 -8 85 -79q213 -214 226 -489h405v-126h-405q-14 -273 -226 -484q-74 -75 -90 -84h721v-127h-941q-111 -17 -240 -17q-322 0 -549.5 227.5t-227.5 549.5t227.5 549.5t549.5 227.5q129 0 241 -21h940v-127h-716zM1515 798q-12 244 -188 421q-70 69 -149 112
q-39 22 -80 38q-107 40 -231 40q-268 0 -458 -190t-190 -459t190 -459.5t458 -190.5q124 0 231 40q41 16 80 38q79 43 148 113q175 175 189 417q1 20 1 42q0 20 -1 38z" />
    <glyph glyph-name="oe" unicode="&#x153;" horiz-adv-x="2016" 
d="M221 501q0 -164 116 -279t280 -115t280 115t116 279t-116 280t-280 116t-280 -116t-116 -280zM1091 737q21 -41 32 -83h651q-19 61 -85 127q-116 116 -280 116t-280 -116q-26 -26 -38 -44zM1090 266q13 -17 39 -44q116 -115 280 -115t280 115q20 21 48 55l128 -45
q-31 -52 -82 -103q-155 -155 -374 -155q-218 0 -372 155l-24 24q-1 -2 -22 -24q-155 -155 -374 -155q-218 0 -372.5 154.5t-154.5 372.5q0 219 154.5 373.5t372.5 154.5q219 0 374 -154q21 -22 22 -24l24 24q154 154 372 154q219 0 374 -154q136 -138 143 -349h-782v-25
q0 -136 -54 -235z" />
    <glyph glyph-name="Ydieresis" unicode="&#x178;" horiz-adv-x="1272" 
d="M572 611l-522 905h146l440 -763l440 763h146l-523 -905v-611h-127v611zM572 1855.5q31 -30.5 31 -73.5q0 -44 -31 -74.5t-74 -30.5t-74 30.5t-31 74.5q0 43 31 73.5t74 30.5t74 -30.5zM848 1855.5q31 -30.5 31 -73.5q0 -44 -31 -74.5t-74 -30.5t-74 30.5t-31 74.5
q0 43 31 73.5t74 30.5t74 -30.5z" />
    <glyph glyph-name="Ygrave" unicode="&#x1ef2;" horiz-adv-x="1272" 
d="M572 611l-522 905h146l440 -763l440 763h146l-523 -905v-611h-127v611zM587 1846l188 -216h-133l-283 216h228z" />
    <glyph glyph-name="ygrave" unicode="&#x1ef3;" horiz-adv-x="1007" 
d="M313 -345h-129l254 534l-363 758h143l286 -617l286 617h141zM454 1228l188 -216h-133l-283 216h228z" />
    <glyph glyph-name="perthousand" unicode="&#x2030;" horiz-adv-x="1687" 
d="M1078 1236l-870 -1242l-105 72l870 1242zM480.5 1093.5q68.5 -68.5 68.5 -166.5q0 -97 -68.5 -165.5t-165.5 -68.5q-98 0 -166.5 68.5t-68.5 165.5q0 98 68.5 166.5t166.5 68.5q97 0 165.5 -68.5zM315 1038q-47 0 -79 -32.5t-32 -78.5t32 -78t79 -32q45 0 77.5 32
t32.5 78t-32.5 78.5t-77.5 32.5zM1032.5 541.5q68.5 -68.5 68.5 -166.5q0 -97 -68.5 -165.5t-165.5 -68.5q-98 0 -166.5 68.5t-68.5 165.5q0 98 68.5 166.5t166.5 68.5q97 0 165.5 -68.5zM867 486q-47 0 -79 -32.5t-32 -78.5t32 -78t79 -32q45 0 77.5 32t32.5 78t-32.5 78.5
t-77.5 32.5zM1538.5 541.5q68.5 -68.5 68.5 -166.5q0 -97 -68.5 -165.5t-165.5 -68.5q-98 0 -166.5 68.5t-68.5 165.5q0 98 68.5 166.5t166.5 68.5q97 0 165.5 -68.5zM1373 486q-47 0 -79 -32.5t-32 -78.5t32 -78t79 -32q45 0 77.5 32t32.5 78t-32.5 78.5t-77.5 32.5z" />
    <glyph glyph-name="peseta" unicode="&#x20a7;" horiz-adv-x="1832" 
d="M264 1388v-750h206q139 0 238 110t99 266q0 155 -99 264.5t-238 109.5h-206zM889 821q-33 -89 -99 -163q-133 -147 -320 -147h-206v-511h-114v1516h369q159 -24 270 -147q133 -147 133 -355q0 -35 -4 -68l64 1v385h127v-385h231q52 30 117 30q99 0 164 -66
q64 -64 64 -147v-19l-112 -45q-12 91 -40.5 120t-75.5 29q-46 0 -79 -32.5t-33 -79.5q0 -46 33 -79q21 -22 93 -67q120 -65 172 -117q84 -86 84 -205q0 -121 -84.5 -206t-204.5 -85q-121 0 -205.5 85t-84.5 205l126 33q0 -101 48 -148.5t116 -47.5q67 0 115 47.5t48 116.5
q0 68 -47 116q-28 27 -115 83q-108 58 -150 101q-70 69 -70 168q0 45 14 84h-124v-821h-127v821h-93z" />
    <glyph glyph-name="germandbls" unicode="&#xdf;" horiz-adv-x="1071" 
d="M437 1531h15q124 0 211 -72q92 -75 100 -226v-16q0 -141 -102 -206q317 -126 330 -493q0 -220 -156 -382q-147 -152 -330 -155v-1h-204v122h204v1q122 8 229 120q120 124 120 294q0 171 -119 290t-340 119v127q143 7 190.5 50.5t47.5 120.5t-48 133q-43 48 -123 48h-10
q-88 -3 -131.5 -55t-48.5 -160v-1210h-132v1225q10 158 86 239.5t211 86.5z" />
    <glyph glyph-name="Aogonek" unicode="&#x104;" horiz-adv-x="1259" 
d="M823 691l-193 531l-193 -531h386zM1045 79l-176 485h-479l-205 -564h-135l580 1592l579 -1592h-135q-48 -21 -65 -38q-21 -21 -21 -50l1 -1q0 -30 21 -52q21 -20 47 -20t81 42l39 -88l-13 -14q-43 -42 -108 -42h-3q-66 0 -116 49q-51 51 -51 122q0 1 1 2q0 72 51 123
q43 43 107 46z" />
    <glyph glyph-name="aogonek" unicode="&#x105;" horiz-adv-x="1317" 
d="M1040 422v159q-21 113 -108 200q-116 116 -280 116t-280 -116t-116 -280t116 -279t280 -115t280 115q87 88 108 200zM1040 72v67q-169 -165 -388 -165q-218 0 -372.5 154.5t-154.5 372.5q0 219 154.5 373.5t372.5 154.5q219 0 388 -165v83h127v-947h-56q-48 -22 -64 -38
q-21 -21 -21 -50l1 -1q0 -30 21 -52q21 -20 47 -20t81 42l39 -88l-13 -14q-43 -42 -108 -42h-3q-66 0 -116 49q-51 51 -51 122q0 1 1 2q0 72 51 123q28 28 64 39z" />
    <glyph glyph-name="Dcaron" unicode="&#x10e;" horiz-adv-x="1167" 
d="M277 1386v-1256q303 0 472 170q189 189 189 458q0 268 -189 458q-169 170 -472 170zM277 1514h-16q373 0 579 -207q227 -228 227 -549q0 -322 -227 -549q-206 -207 -579 -207h16v-2h-127v1516h127v-2zM547 1572l-254 259h157l154 -125l163 125h157l-263 -259h-114z" />
    <glyph glyph-name="dcaron" unicode="&#x10f;" horiz-adv-x="1420" 
d="M1167 0h-127v139q-169 -165 -388 -165q-218 0 -372.5 154.5t-154.5 372.5q0 219 154.5 373.5t372.5 154.5q219 0 388 -165v652h127v-1516zM1040 422v159q-21 113 -108 200q-116 116 -280 116t-280 -116t-116 -280t116 -279t280 -115t280 115q87 88 108 200zM1265 1326
q-3 1 -23 22q-31 30 -31 74t30.5 74t73.5 30q44 0 74.5 -30t30.5 -74q0 -23 -8 -45l-97 -195h-105z" />
    <glyph glyph-name="Eogonek" unicode="&#x118;" horiz-adv-x="1055" 
d="M633 0h-483v1516h780v-127h-653v-568h653v-126h-653v-568h653v-127h-136q-48 -22 -64 -38q-21 -21 -21 -50l1 -1q0 -30 21 -52q21 -20 47 -20t81 42l39 -88l-13 -14q-43 -42 -108 -42h-3q-66 0 -116 49q-51 51 -51 122q0 1 1 2q0 50 25 90z" />
    <glyph glyph-name="eogonek" unicode="&#x119;" 
d="M834 834q-82 63 -217 63q-163 0 -279 -115.5t-116 -279.5q0 -135 63 -217zM673 -23q-28 -3 -56 -3q-218 0 -372.5 154.5t-154.5 373.5q0 218 154.5 372.5t372.5 154.5q187 0 328 -112q23 -19 46 -42l30 -33l-77 -77l-573 -573q94 -85 246 -85q164 0 280 115q15 15 38 43
l129 -46q-42 -59 -73 -90q-92 -92 -206 -129q-12 -17 -12 -39l1 -1q0 -30 21 -52q21 -20 47 -20t81 42l39 -88l-13 -14q-43 -42 -108 -42h-3q-66 0 -116 49q-51 51 -51 122q0 1 1 2q0 9 1 18z" />
    <glyph glyph-name="Gcommaaccent" unicode="&#x122;" horiz-adv-x="1565" 
d="M836 -15q-280 21 -484 225q-227 226 -227 548q0 321 227 548t548 227q301 0 540 -217l-95 -87q-198 176 -445 176q-267 0 -456.5 -189.5t-189.5 -457.5q0 -269 189.5 -458.5t456.5 -189.5q230 0 397 135v460h127v-509q-205 -196 -476 -212l-4 -12q81 0 110 -50
q13 -24 13 -49q0 -28 -15 -58q-30 -57 -81 -75q-39 -13 -82 -13h-15q-55 3 -111 41l69 62q19 -8 37 -9h7q15 0 33 5q17 4 24 17q1 2 1 4q0 6 -6 15q-8 12 -29 14q-9 1 -24 1q-26 0 -109 -7z" />
    <glyph glyph-name="gcommaaccent" unicode="&#x123;" horiz-adv-x="1321" 
d="M1039 586q-22 110 -107 195q-116 116 -280 116t-280 -116t-116 -280t116 -279.5t280 -115.5t280 116q84 84 107 193v171zM1033 131l-7 -2q-155 -155 -374 -155q-218 0 -372.5 154.5t-154.5 372.5q0 219 154.5 373t372.5 154q219 0 388 -164v83h127v-724q0 -212 -151 -363
q-154 -154 -372 -154q-219 0 -374 154q-31 32 -73 90l129 46q23 -27 38 -42q116 -116 280 -116q163 0 279 116q105 105 110 177zM695 1322q3 -1 23 -22q31 -30 31 -74t-30.5 -74t-73.5 -30q-44 0 -74.5 30t-30.5 74q0 23 8 45l97 195h105z" />
    <glyph glyph-name="Hcircumflex" unicode="&#x124;" horiz-adv-x="1126" 
d="M277 660v-660h-127v1516h127v-730h572v730h127v-1516h-127v660h-572zM616 1831l263 -259h-157l-163 125l-154 -125h-157l254 259h114z" />
    <glyph glyph-name="hcircumflex" unicode="&#x125;" horiz-adv-x="1042" 
d="M150 1516h127v-586q74 72 230 72q169 0 275.5 -107t109.5 -268v-627h-127v619q0 106 -76.5 181t-181.5 75t-182 -74q-33 -34 -48 -65v-736h-127v1516zM574 1785l263 -259h-157l-163 125l-154 -125h-157l254 259h114z" />
    <glyph glyph-name="Itilde" unicode="&#x128;" horiz-adv-x="467" 
d="M297 1516v-1516h-127v1516h127zM242 1763q63 -51 101 -51h4q29 2 47 78h107q-26 -158 -111 -183q-22 -7 -45 -7q-60 0 -119 47q-63 50 -101 50h-3q-30 -2 -48 -77h-108q27 158 112 183q22 6 45 6q60 0 119 -46z" />
    <glyph glyph-name="itilde" unicode="&#x129;" horiz-adv-x="467" 
d="M297 947v-947h-127v947h127zM242 1194q63 -51 101 -51h4q29 2 47 78h107q-26 -158 -111 -183q-22 -7 -45 -7q-60 0 -119 47q-63 50 -101 50h-3q-30 -2 -48 -77h-108q27 158 112 183q22 6 45 6q60 0 119 -46z" />
    <glyph glyph-name="Imacron" unicode="&#x12a;" horiz-adv-x="467" 
d="M297 1516v-1516h-127v1516h127zM-60 1742h587v-109h-587v109z" />
    <glyph glyph-name="imacron" unicode="&#x12b;" horiz-adv-x="467" 
d="M297 947v-947h-127v947h127zM-60 1173h587v-109h-587v109z" />
    <glyph glyph-name="Iogonek" unicode="&#x12e;" horiz-adv-x="467" 
d="M281 1516v-1516h-127v1516h127zM196 21q-91 -35 -115 -59q-21 -21 -21 -50l1 -1q0 -30 21 -52q21 -20 47 -20t81 42l39 -88l-13 -14q-43 -42 -108 -42h-3q-66 0 -116 49q-51 51 -51 122q0 1 1 2q0 72 51 123q46 46 115 46h13z" />
    <glyph glyph-name="iogonek" unicode="&#x12f;" horiz-adv-x="460" 
d="M277 947v-947h-127v947h127zM288 1237.5q31 -30.5 31 -73.5q0 -44 -31 -74.5t-74 -30.5t-74 30.5t-31 74.5q0 43 31 73.5t74 30.5t74 -30.5zM234 21q-91 -35 -115 -59q-21 -21 -21 -50l1 -1q0 -30 21 -52q21 -20 47 -20t81 42l39 -88l-13 -14q-43 -42 -108 -42h-3
q-66 0 -116 49q-51 51 -51 122q0 1 1 2q0 72 51 123q46 46 115 46h13z" />
    <glyph glyph-name="Idotaccent" unicode="&#x130;" horiz-adv-x="467" 
d="M297 1516v-1516h-127v1516h127zM298.5 1785.5q27.5 -26.5 27.5 -65.5t-27.5 -65.5t-64.5 -26.5q-39 0 -66 26.5t-27 65.5t27 65.5t66 26.5q37 0 64.5 -26.5z" />
    <glyph glyph-name="Lacute" unicode="&#x139;" horiz-adv-x="937" 
d="M150 0v1516h127v-1389h570v-127h-697zM776 1797l-283 -216h-133l188 216h228z" />
    <glyph glyph-name="lacute" unicode="&#x13a;" horiz-adv-x="427" 
d="M278 1516v-1516h-127v1516h127zM422 1885l-283 -216h-133l188 216h228z" />
    <glyph glyph-name="Racute" unicode="&#x154;" horiz-adv-x="1062" 
d="M277 1388v-750h228q155 0 265 110t110 266q0 155 -110 264.5t-265 109.5h-228zM505 511h-228v-511h-127v1516h410q177 -24 300 -147q147 -147 147 -355q0 -209 -147 -356q-102 -102 -204 -127l345 -531h-155zM856 1797l-283 -216h-133l188 216h228z" />
    <glyph glyph-name="racute" unicode="&#x155;" horiz-adv-x="611" 
d="M150 947h127v-116q138 132 284 139v-135q-91 -4 -168 -82q-112 -110 -116 -265v-488h-127v947zM633 1228l-283 -216h-133l188 216h228z" />
    <glyph glyph-name="Rcaron" unicode="&#x158;" horiz-adv-x="1062" 
d="M277 1388v-750h228q155 0 265 110t110 266q0 155 -110 264.5t-265 109.5h-228zM505 511h-228v-511h-127v1516h410q177 -24 300 -147q147 -147 147 -355q0 -209 -147 -356q-102 -102 -204 -127l345 -531h-155zM517 1572l-254 259h157l154 -125l163 125h157l-263 -259h-114
z" />
    <glyph glyph-name="rcaron" unicode="&#x159;" horiz-adv-x="611" 
d="M150 947h127v-116q138 132 284 139v-135q-91 -4 -168 -82q-112 -110 -116 -265v-488h-127v947zM294 1003l-254 259h157l154 -125l163 125h157l-263 -259h-114z" />
    <glyph glyph-name="Sacute" unicode="&#x15a;" horiz-adv-x="1013" 
d="M525 816q-162 54 -258 150.5t-96 234.5q0 136 97.5 234t236.5 98q138 0 236 -97q55 -52 82 -138l-115 -45q-22 61 -57 96q-60 60 -146 60t-146.5 -60.5t-60.5 -147.5q0 -85 61 -146q59 -59 165 -108q180 -58 305 -183q134 -133 134 -322q0 -191 -134.5 -325t-323.5 -134
q-190 0 -324 135q-107 107 -131 267l121 44q16 -139 99 -223q98 -98 235 -98q138 0 235.5 97.5t97.5 236.5q0 137 -97 234q-88 88 -216 140zM784 1797l-283 -216h-133l188 216h228z" />
    <glyph glyph-name="sacute" unicode="&#x15b;" horiz-adv-x="799" 
d="M406 468q-107 58 -150 101q-70 69 -70 168t70 169.5t168 70.5q99 0 165 -66q63 -64 63 -147v-19l-112 -45q-12 91 -40.5 120t-75.5 29q-46 0 -79 -32.5t-33 -79.5q0 -46 33 -79q21 -22 93 -67q120 -65 172 -117q84 -86 84 -205q0 -121 -84.5 -206t-204.5 -85
q-121 0 -205.5 85t-84.5 205l126 33q0 -101 48 -148.5t116 -47.5q67 0 115.5 47.5t48.5 116.5q0 68 -48 116q-28 27 -115 83zM682 1228l-283 -216h-133l188 216h228z" />
    <glyph glyph-name="Scircumflex" unicode="&#x15c;" horiz-adv-x="1013" 
d="M525 816q-162 54 -258 150.5t-96 234.5q0 136 97.5 234t236.5 98q138 0 236 -97q55 -52 82 -138l-115 -45q-22 61 -57 96q-60 60 -146 60t-146.5 -60.5t-60.5 -147.5q0 -85 61 -146q59 -59 165 -108q180 -58 305 -183q134 -133 134 -322q0 -191 -134.5 -325t-323.5 -134
q-190 0 -324 135q-107 107 -131 267l121 44q16 -139 99 -223q98 -98 235 -98q138 0 235.5 97.5t97.5 236.5q0 137 -97 234q-88 88 -216 140zM559 1831l263 -259h-157l-163 125l-154 -125h-157l254 259h114z" />
    <glyph glyph-name="scircumflex" unicode="&#x15d;" horiz-adv-x="799" 
d="M406 468q-107 58 -150 101q-70 69 -70 168t70 169.5t168 70.5q99 0 165 -66q63 -64 63 -147v-19l-112 -45q-12 91 -40.5 120t-75.5 29q-46 0 -79 -32.5t-33 -79.5q0 -46 33 -79q21 -22 93 -67q120 -65 172 -117q84 -86 84 -205q0 -121 -84.5 -206t-204.5 -85
q-121 0 -205.5 85t-84.5 205l126 33q0 -101 48 -148.5t116 -47.5q67 0 115.5 47.5t48.5 116.5q0 68 -48 116q-28 27 -115 83zM457 1262l263 -259h-157l-163 125l-154 -125h-157l254 259h114z" />
    <glyph glyph-name="Scedilla" unicode="&#x15e;" horiz-adv-x="1013" 
d="M430 -11q-142 22 -249 129t-131 267l121 44q16 -139 99 -223q98 -98 235 -98q138 0 235.5 97.5t97.5 236.5q0 137 -97 234q-88 88 -216 140q-162 54 -258 150.5t-96 234.5q0 136 97.5 234t236.5 98q138 0 236 -97q55 -52 82 -138l-115 -45q-22 61 -57 96q-60 60 -146 60
t-146.5 -60.5t-60.5 -147.5q0 -85 61 -146q59 -59 165 -108q180 -58 305 -183q134 -133 134 -322q0 -191 -134 -325q-122 -121 -289 -133l-4 -12q81 0 110 -50q13 -24 13 -49q0 -28 -15 -58q-30 -57 -81 -75q-39 -13 -82 -13h-15q-55 3 -111 41l69 62q19 -8 37 -9h7
q15 0 33 5q17 4 24 17q1 2 1 4q0 6 -6 15q-8 12 -29 14q-9 1 -24 1q-26 0 -109 -7z" />
    <glyph glyph-name="scedilla" unicode="&#x15f;" horiz-adv-x="799" 
d="M332 -14q-75 19 -132 77q-85 85 -85 205l126 33q0 -101 48 -148.5t116 -47.5q67 0 115.5 47.5t48.5 116.5q0 68 -48 116q-28 27 -115 83q-107 58 -150 101q-70 69 -70 168t70 169.5t168 70.5q99 0 165 -66q63 -64 63 -147v-19l-112 -45q-12 91 -40.5 120t-75.5 29
q-46 0 -79 -32.5t-33 -79.5q0 -46 33 -79q21 -22 93 -67q120 -65 172 -117q84 -86 84 -205q0 -121 -84 -206q-72 -72 -170 -83l-6 -18q81 0 110 -50q13 -24 13 -49q0 -28 -15 -58q-30 -57 -81 -75q-39 -13 -82 -13h-15q-55 3 -111 41l69 62q19 -8 37 -9h7q15 0 33 5
q17 4 24 17q1 2 1 4q0 6 -6 15q-8 12 -29 14q-9 1 -24 1q-26 0 -109 -7z" />
    <glyph glyph-name="Scaron" unicode="&#x160;" horiz-adv-x="1013" 
d="M525 816q-162 54 -258 150.5t-96 234.5q0 136 97.5 234t236.5 98q138 0 236 -97q55 -52 82 -138l-115 -45q-22 61 -57 96q-60 60 -146 60t-146.5 -60.5t-60.5 -147.5q0 -85 61 -146q59 -59 165 -108q180 -58 305 -183q134 -133 134 -322q0 -191 -134.5 -325t-323.5 -134
q-190 0 -324 135q-107 107 -131 267l121 44q16 -139 99 -223q98 -98 235 -98q138 0 235.5 97.5t97.5 236.5q0 137 -97 234q-88 88 -216 140zM445 1572l-254 259h157l154 -125l163 125h157l-263 -259h-114z" />
    <glyph glyph-name="scaron" unicode="&#x161;" horiz-adv-x="799" 
d="M406 468q-107 58 -150 101q-70 69 -70 168t70 169.5t168 70.5q99 0 165 -66q63 -64 63 -147v-19l-112 -45q-12 91 -40.5 120t-75.5 29q-46 0 -79 -32.5t-33 -79.5q0 -46 33 -79q21 -22 93 -67q120 -65 172 -117q84 -86 84 -205q0 -121 -84.5 -206t-204.5 -85
q-121 0 -205.5 85t-84.5 205l126 33q0 -101 48 -148.5t116 -47.5q67 0 115.5 47.5t48.5 116.5q0 68 -48 116q-28 27 -115 83zM343 1003l-254 259h157l154 -125l163 125h157l-263 -259h-114z" />
    <glyph glyph-name="Tcommaaccent" unicode="&#x162;" horiz-adv-x="972" 
d="M423 44v1345h-373v127h872v-127h-373v-1380q54 -8 76 -47q13 -24 13 -49q0 -28 -15 -58q-30 -57 -81 -75q-39 -13 -82 -13h-15q-55 3 -111 41l69 62q19 -8 37 -9h7q15 0 33 5q17 4 24 17q1 2 1 4q0 6 -6 15q-8 12 -29 14q-9 1 -24 1q-26 0 -109 -7l81 134h5z" />
    <glyph glyph-name="tcommaaccent" unicode="&#x163;" horiz-adv-x="675" 
d="M274 44v777h-184v126h184v385h127v-385h184v-126h-184v-812q54 -8 76 -47q13 -24 13 -49q0 -28 -15 -58q-30 -57 -81 -75q-39 -13 -82 -13h-15q-55 3 -111 41l69 62q19 -8 37 -9h7q15 0 33 5q17 4 24 17q1 2 1 4q0 6 -6 15q-8 12 -29 14q-9 1 -24 1q-26 0 -109 -7l81 134
h4z" />
    <glyph glyph-name="Utilde" unicode="&#x168;" horiz-adv-x="1305" 
d="M1028 1516h127v-1081q-24 -178 -147 -301q-147 -147 -355 -147q-209 0 -356 147.5t-147 354.5v1027h128v-1027q0 -154 110 -264t265 -110q156 0 265.5 110t109.5 264v1027zM661 1763q63 -51 101 -51h4q29 2 47 78h107q-26 -158 -111 -183q-22 -7 -45 -7q-60 0 -119 47
q-63 50 -101 50h-3q-30 -2 -48 -77h-108q27 158 112 183q22 6 45 6q60 0 119 -46z" />
    <glyph glyph-name="utilde" unicode="&#x169;" horiz-adv-x="1079" 
d="M545 -13q-179 0 -285.5 106.5t-109.5 268.5v587h127v-579q0 -106 77 -180q76 -76 190 -76q105 0 181.5 75t76.5 181v579h127v-587q-3 -162 -109 -268q-107 -107 -275 -107zM548 1194q63 -51 101 -51h4q29 2 47 78h107q-26 -158 -111 -183q-22 -7 -45 -7q-60 0 -119 47
q-63 50 -101 50h-3q-30 -2 -48 -77h-108q27 158 112 183q22 6 45 6q60 0 119 -46z" />
    <glyph glyph-name="Umacron" unicode="&#x16a;" horiz-adv-x="1305" 
d="M1028 1516h127v-1081q-24 -178 -147 -301q-147 -147 -355 -147q-209 0 -356 147.5t-147 354.5v1027h128v-1027q0 -154 110 -264t265 -110q156 0 265.5 110t109.5 264v1027zM359 1742h587v-109h-587v109z" />
    <glyph glyph-name="umacron" unicode="&#x16b;" horiz-adv-x="1079" 
d="M545 -13q-179 0 -285.5 106.5t-109.5 268.5v587h127v-579q0 -106 77 -180q76 -76 190 -76q105 0 181.5 75t76.5 181v579h127v-587q-3 -162 -109 -268q-107 -107 -275 -107zM246 1173h587v-109h-587v109z" />
    <glyph glyph-name="Ubreve" unicode="&#x16c;" horiz-adv-x="1305" 
d="M1028 1516h127v-1081q-24 -178 -147 -301q-147 -147 -355 -147q-209 0 -356 147.5t-147 354.5v1027h128v-1027q0 -154 110 -264t265 -110q156 0 265.5 110t109.5 264v1027zM523 1844q9 -60 39 -90q38 -38 91 -38t91 38q30 30 38 90h111q-11 -108 -71 -169
q-69 -70 -169 -70t-169 70q-66 67 -71 169h110z" />
    <glyph glyph-name="ubreve" unicode="&#x16d;" horiz-adv-x="1079" 
d="M545 -13q-179 0 -285.5 106.5t-109.5 268.5v587h127v-579q0 -106 77 -180q76 -76 190 -76q105 0 181.5 75t76.5 181v579h127v-587q-3 -162 -109 -268q-107 -107 -275 -107zM410 1275q9 -60 39 -90q38 -38 91 -38t91 38q30 30 38 90h111q-11 -108 -71 -169
q-69 -70 -169 -70t-169 70q-66 67 -71 169h110z" />
    <glyph glyph-name="Uring" unicode="&#x16e;" horiz-adv-x="1305" 
d="M1028 1516h127v-1081q-24 -178 -147 -301q-147 -147 -355 -147q-209 0 -356 147.5t-147 354.5v1027h128v-1027q0 -154 110 -264t265 -110q156 0 265.5 110t109.5 264v1027zM748.5 1834.5q39.5 -39.5 39.5 -95.5q0 -55 -39.5 -94.5t-95.5 -39.5t-95.5 39.5t-39.5 94.5
q0 56 39.5 95.5t95.5 39.5t95.5 -39.5zM653 1770q-13 0 -22 -9t-9 -22q0 -12 9 -21.5t22 -9.5q12 0 21.5 9.5t9.5 21.5q0 13 -9.5 22t-21.5 9z" />
    <glyph glyph-name="uring" unicode="&#x16f;" horiz-adv-x="1079" 
d="M545 -13q-179 0 -285.5 106.5t-109.5 268.5v587h127v-579q0 -106 77 -180q76 -76 190 -76q105 0 181.5 75t76.5 181v579h127v-587q-3 -162 -109 -268q-107 -107 -275 -107zM635.5 1265.5q39.5 -39.5 39.5 -95.5q0 -55 -39.5 -94.5t-95.5 -39.5t-95.5 39.5t-39.5 94.5
q0 56 39.5 95.5t95.5 39.5t95.5 -39.5zM540 1201q-13 0 -22 -9t-9 -22q0 -12 9 -21.5t22 -9.5q12 0 21.5 9.5t9.5 21.5q0 13 -9.5 22t-21.5 9z" />
    <glyph glyph-name="Uhungarumlaut" unicode="&#x170;" horiz-adv-x="1305" 
d="M1028 1516h127v-1081q-24 -178 -147 -301q-147 -147 -355 -147q-209 0 -356 147.5t-147 354.5v1027h128v-1027q0 -154 110 -264t265 -110q156 0 265.5 110t109.5 264v1027zM740 1780l-283 -216h-133l188 216h228zM981 1780l-283 -216h-133l188 216h228z" />
    <glyph glyph-name="uhungarumlaut" unicode="&#x171;" horiz-adv-x="1079" 
d="M545 -13q-179 0 -285.5 106.5t-109.5 268.5v587h127v-579q0 -106 77 -180q76 -76 190 -76q105 0 181.5 75t76.5 181v579h127v-587q-3 -162 -109 -268q-107 -107 -275 -107zM627 1211l-283 -216h-133l188 216h228zM868 1211l-283 -216h-133l188 216h228z" />
    <glyph glyph-name="Uogonek" unicode="&#x172;" horiz-adv-x="1305" 
d="M1028 1516h127v-1081q-24 -178 -147 -301q-147 -147 -355 -147q-209 0 -356 147.5t-147 354.5v1027h128v-1027q0 -154 110 -264t265 -110q156 0 265.5 110t109.5 264v1027zM867 83q-91 -35 -115 -59q-21 -21 -21 -50l1 -1q0 -30 21 -52q21 -20 47 -20t81 42l39 -88
l-13 -14q-43 -42 -108 -42h-3q-66 0 -116 49q-51 51 -51 122q0 1 1 2q0 72 51 123q46 46 115 46h13z" />
    <glyph glyph-name="uogonek" unicode="&#x173;" horiz-adv-x="1079" 
d="M545 -13q-179 0 -285.5 106.5t-109.5 268.5v587h127v-579q0 -106 77 -180q76 -76 190 -76q105 0 181.5 75t76.5 181v579h127v-587q-3 -162 -109 -268q-107 -107 -275 -107zM844 21q-91 -35 -115 -59q-21 -21 -21 -50l1 -1q0 -30 21 -52q21 -20 47 -20t81 42l39 -88
l-13 -14q-43 -42 -108 -42h-3q-66 0 -116 49q-51 51 -51 122q0 1 1 2q0 72 51 123q46 46 115 46h13z" />
    <glyph glyph-name="Wcircumflex" unicode="&#x174;" horiz-adv-x="1602" 
d="M738 248v1268h127v-1268q17 -32 45 -60q77 -74 182 -74t181.5 75t76.5 181v1146h127v-1154q-3 -152 -112 -262q-113 -113 -273 -113q-159 0 -272 112l-19 17l-19 -17q-113 -112 -272 -112q-160 0 -272 113q-110 110 -113 262v1154h127v-1146q0 -106 76.5 -181t181.5 -75
q106 0 182 74q29 28 46 60zM854 1831l263 -259h-157l-163 125l-154 -125h-157l254 259h114z" />
    <glyph glyph-name="wcircumflex" unicode="&#x175;" horiz-adv-x="1333" 
d="M603 262v685h126v-666q0 -71 48.5 -119t115.5 -48q68 0 116 48q45 44 47 85v700h127v-679q-4 -115 -85 -195q-84 -86 -205 -86q-120 0 -226 106q-107 -106 -227 -106q-121 0 -205 86q-81 80 -85 195v679h127v-700q2 -41 48 -85q47 -48 115 -48q67 0 116 48q41 41 47 100z
M719 1262l263 -259h-157l-163 125l-154 -125h-157l254 259h114z" />
    <glyph glyph-name="Ycircumflex" unicode="&#x176;" horiz-adv-x="1272" 
d="M572 611l-522 905h146l440 -763l440 763h146l-523 -905v-611h-127v611zM689 1831l263 -259h-157l-163 125l-154 -125h-157l254 259h114z" />
    <glyph glyph-name="ycircumflex" unicode="&#x177;" horiz-adv-x="1007" 
d="M313 -345h-129l254 534l-363 758h143l286 -617l286 617h141zM556 1262l263 -259h-157l-163 125l-154 -125h-157l254 259h114z" />
    <glyph glyph-name="Zacute" unicode="&#x179;" horiz-adv-x="1321" 
d="M952 1389h-786v127h1005l-803 -1389h787v-127h-1005zM938 1797l-283 -216h-133l188 216h228z" />
    <glyph glyph-name="zacute" unicode="&#x17a;" horiz-adv-x="1004" 
d="M616 808h-450v127h669l-467 -808h486v-127h-704zM779 1228l-283 -216h-133l188 216h228z" />
    <glyph glyph-name="Zdotaccent" unicode="&#x17b;" horiz-adv-x="1321" 
d="M952 1389h-786v127h1005l-803 -1389h787v-127h-1005zM725.5 1785.5q27.5 -26.5 27.5 -65.5t-27.5 -65.5t-64.5 -26.5q-39 0 -66 26.5t-27 65.5t27 65.5t66 26.5q37 0 64.5 -26.5z" />
    <glyph glyph-name="zdotaccent" unicode="&#x17c;" horiz-adv-x="1004" 
d="M616 808h-450v127h669l-467 -808h486v-127h-704zM567.5 1216.5q27.5 -26.5 27.5 -65.5t-27.5 -65.5t-64.5 -26.5q-39 0 -66 26.5t-27 65.5t27 65.5t66 26.5q37 0 64.5 -26.5z" />
    <glyph glyph-name="Zcaron" unicode="&#x17d;" horiz-adv-x="1321" 
d="M952 1389h-786v127h1005l-803 -1389h787v-127h-1005zM599 1572l-254 259h157l154 -125l163 125h157l-263 -259h-114z" />
    <glyph glyph-name="zcaron" unicode="&#x17e;" horiz-adv-x="1004" 
d="M616 808h-450v127h669l-467 -808h486v-127h-704zM441 1003l-254 259h157l154 -125l163 125h157l-263 -259h-114z" />
    <glyph glyph-name="AEacute" unicode="&#x1fc;" horiz-adv-x="1693" 
d="M1568 821v-126h-653v-568h653v-127h-780v564h-276l-251 -564h-136l659 1516h784v-127h-653v-568h653zM788 691v526l-226 -526h226zM1124 1797l-283 -216h-133l188 216h228z" />
    <glyph glyph-name="aeacute" unicode="&#x1fd;" horiz-adv-x="2057" 
d="M965 691q-26 48 -68 90q-116 116 -280 116t-280 -116t-116 -280t116 -279t280 -115t280 115q42 42 68 90q29 52 40 109v160q-11 58 -40 110zM1814 654q-18 61 -85 127q-115 116 -279 116t-280 -116q-24 -24 -38 -42v-85h682zM1132 265q14 -20 38 -42q116 -116 280 -116
t279 115q21 21 48 55l129 -45q-31 -52 -83 -103q-154 -155 -373 -155q-206 0 -318 104v-78h-127v139q-169 -165 -388 -165q-218 0 -372.5 154.5t-154.5 372.5q0 219 154.5 373.5t372.5 154.5q219 0 388 -165v83h127v-21q112 103 318 103q219 0 373 -154q137 -138 143 -349
l-834 1v-262zM1305 1228l-283 -216h-133l188 216h228z" />
    <glyph glyph-name="Oslashacute" unicode="&#x1fe;" horiz-adv-x="1805" 
d="M1118 1374q-87 35 -216 35q-268 0 -458 -190t-190 -459t190 -459q69 -69 127 -102zM686 145q88 -35 216 -35q269 0 459 190.5t190 459.5t-189 459q-70 69 -129 101zM1288 1437q79 -43 164 -127q228 -228 228 -550t-228 -549.5t-550 -227.5q-156 0 -270 46l-80 -171
l-115 54l80 170q-80 44 -164 129q-228 227 -228 549t227.5 549.5t549.5 227.5q156 0 271 -46l79 170l116 -53zM1180 1797l-283 -216h-133l188 216h228z" />
    <glyph glyph-name="oslashacute" unicode="&#x1ff;" horiz-adv-x="1234" 
d="M759 874q-53 24 -142 24q-164 0 -280 -116t-116 -280t116 -279q24 -24 30 -28zM868 810l-393 -679q53 -24 142 -24q164 0 280 115.5t116 279.5t-116 280q-24 24 -29 28zM301 80q-22 15 -56 50q-155 154 -155 372q0 219 154.5 373.5t372.5 154.5q124 0 209 -41l113 196
l112 -58l-117 -202q22 -15 57 -49q153 -155 153 -374q0 -218 -154 -372.5t-373 -154.5q-124 0 -208 41l-113 -196l-113 54zM894 1228l-283 -216h-133l188 216h228z" />
    <glyph glyph-name="Wgrave" unicode="&#x1e80;" horiz-adv-x="1602" 
d="M738 248v1268h127v-1268q17 -32 45 -60q77 -74 182 -74t181.5 75t76.5 181v1146h127v-1154q-3 -152 -112 -262q-113 -113 -273 -113q-159 0 -272 112l-19 17l-19 -17q-113 -112 -272 -112q-160 0 -272 113q-110 110 -113 262v1154h127v-1146q0 -106 76.5 -181t181.5 -75
q106 0 182 74q29 28 46 60zM752 1797l188 -216h-133l-283 216h228z" />
    <glyph glyph-name="wgrave" unicode="&#x1e81;" horiz-adv-x="1333" 
d="M603 262v685h126v-666q0 -71 48.5 -119t115.5 -48q68 0 116 48q45 44 47 85v700h127v-679q-4 -115 -85 -195q-84 -86 -205 -86q-120 0 -226 106q-107 -106 -227 -106q-121 0 -205 86q-81 80 -85 195v679h127v-700q2 -41 48 -85q47 -48 115 -48q67 0 116 48q41 41 47 100z
M617 1228l188 -216h-133l-283 216h228z" />
    <glyph glyph-name="Wacute" unicode="&#x1e82;" horiz-adv-x="1602" 
d="M738 248v1268h127v-1268q17 -32 45 -60q77 -74 182 -74t181.5 75t76.5 181v1146h127v-1154q-3 -152 -112 -262q-113 -113 -273 -113q-159 0 -272 112l-19 17l-19 -17q-113 -112 -272 -112q-160 0 -272 113q-110 110 -113 262v1154h127v-1146q0 -106 76.5 -181t181.5 -75
q106 0 182 74q29 28 46 60zM1078 1797l-283 -216h-133l188 216h228z" />
    <glyph glyph-name="wacute" unicode="&#x1e83;" horiz-adv-x="1333" 
d="M603 262v685h126v-666q0 -71 48.5 -119t115.5 -48q68 0 116 48q45 44 47 85v700h127v-679q-4 -115 -85 -195q-84 -86 -205 -86q-120 0 -226 106q-107 -106 -227 -106q-121 0 -205 86q-81 80 -85 195v679h127v-700q2 -41 48 -85q47 -48 115 -48q67 0 116 48q41 41 47 100z
M944 1228l-283 -216h-133l188 216h228z" />
    <glyph glyph-name="Wdieresis" unicode="&#x1e84;" horiz-adv-x="1602" 
d="M738 248v1268h127v-1268q17 -32 45 -60q77 -74 182 -74t181.5 75t76.5 181v1146h127v-1154q-3 -152 -112 -262q-113 -113 -273 -113q-159 0 -272 112l-19 17l-19 -17q-113 -112 -272 -112q-160 0 -272 113q-110 110 -113 262v1154h127v-1146q0 -106 76.5 -181t181.5 -75
q106 0 182 74q29 28 46 60zM737 1806.5q31 -30.5 31 -73.5q0 -44 -31 -74.5t-74 -30.5t-74 30.5t-31 74.5q0 43 31 73.5t74 30.5t74 -30.5zM1013 1806.5q31 -30.5 31 -73.5q0 -44 -31 -74.5t-74 -30.5t-74 30.5t-31 74.5q0 43 31 73.5t74 30.5t74 -30.5z" />
    <glyph glyph-name="wdieresis" unicode="&#x1e85;" horiz-adv-x="1333" 
d="M603 262v685h126v-666q0 -71 48.5 -119t115.5 -48q68 0 116 48q45 44 47 85v700h127v-679q-4 -115 -85 -195q-84 -86 -205 -86q-120 0 -226 106q-107 -106 -227 -106q-121 0 -205 86q-81 80 -85 195v679h127v-700q2 -41 48 -85q47 -48 115 -48q67 0 116 48q41 41 47 100z
M603 1237.5q31 -30.5 31 -73.5q0 -44 -31 -74.5t-74 -30.5t-74 30.5t-31 74.5q0 43 31 73.5t74 30.5t74 -30.5zM879 1237.5q31 -30.5 31 -73.5q0 -44 -31 -74.5t-74 -30.5t-74 30.5t-31 74.5q0 43 31 73.5t74 30.5t74 -30.5z" />
    <glyph glyph-name="afii00208" unicode="&#x2015;" horiz-adv-x="3072" 
d="M0 630h2007v-127h-2007v127z" />
    <glyph glyph-name="underscoredbl" unicode="&#x2017;" horiz-adv-x="1014" 
d="M25 -299h964v-126h-964v126zM25 16h964v-126h-964v126z" />
    <glyph glyph-name="quotereversed" unicode="&#x201b;" horiz-adv-x="311" 
d="M205 1326q3 1 23 22q31 30 31 74t-30.5 74t-73.5 30q-44 0 -74.5 -30t-30.5 -74q0 -23 8 -45l97 -195h105z" />
    <glyph glyph-name="minute" unicode="&#x2032;" horiz-adv-x="377" 
d="M125 917v596h127v-596h-127z" />
    <glyph glyph-name="second" unicode="&#x2033;" horiz-adv-x="631" 
d="M125 917v596h127v-596h-127zM379 917v596h127v-596h-127z" />
    <glyph glyph-name="exclamdbl" unicode="&#x203c;" horiz-adv-x="920" 
d="M304 165.5q31 -30.5 31 -73.5q0 -44 -31 -74.5t-74 -30.5t-74 30.5t-31 74.5q0 43 31 73.5t74 30.5t74 -30.5zM291 1516v-1262h-126v1262h126zM764 165.5q31 -30.5 31 -73.5q0 -44 -31 -74.5t-74 -30.5t-74 30.5t-31 74.5q0 43 31 73.5t74 30.5t74 -30.5zM751 1516v-1262
h-126v1262h126z" />
    <glyph glyph-name="uniF001" unicode="&#xf001;" horiz-adv-x="994" 
d="M309 821v-821h-127v821h-92v126h92v224q6 111 85 191q82 76 189 76q55 0 137 -28l-41 -117q-56 24 -88 24q-56 0 -108 -46q-45 -44 -47 -107v-217h184v-126h-184zM827 947v-947h-127v947h127zM838 1237.5q31 -30.5 31 -73.5q0 -44 -31 -74.5t-74 -30.5t-74 30.5t-31 74.5
q0 43 31 73.5t74 30.5t74 -30.5z" />
    <glyph glyph-name="uniF002" unicode="&#xf002;" horiz-adv-x="961" 
d="M309 821v-821h-127v821h-92v126h92v224q6 111 85 191q82 76 189 76q55 0 137 -28l-41 -117q-56 24 -88 24q-56 0 -108 -46q-45 -44 -47 -107v-217h184v-126h-184zM811 1516v-1516h-127v1516h127z" />
    <glyph glyph-name="uniFB01" unicode="&#xfb01;" horiz-adv-x="994" 
d="M309 821v-821h-127v821h-92v126h92v224q6 111 85 191q82 76 189 76q55 0 137 -28l-41 -117q-56 24 -88 24q-56 0 -108 -46q-45 -44 -47 -107v-217h184v-126h-184zM827 947v-947h-127v947h127zM838 1237.5q31 -30.5 31 -73.5q0 -44 -31 -74.5t-74 -30.5t-74 30.5t-31 74.5
q0 43 31 73.5t74 30.5t74 -30.5z" />
    <glyph glyph-name="uniFB02" unicode="&#xfb02;" horiz-adv-x="961" 
d="M309 821v-821h-127v821h-92v126h92v224q6 111 85 191q82 76 189 76q55 0 137 -28l-41 -117q-56 24 -88 24q-56 0 -108 -46q-45 -44 -47 -107v-217h184v-126h-184zM811 1516v-1516h-127v1516h127z" />
    </font>
</defs>
</svg>
